v 0.015179227106273174 0.03973634913563728 0.07625406980514526
v 0.014871416613459587 0.039935629814863205 0.07977285981178284
v 0.016990946605801582 0.04411131888628006 0.0795874297618866
v 0.01720750704407692 0.04373227059841156 0.07607660442590714
v 0.01448034681379795 0.035306837409734726 0.07631519436836243
v 0.02029217779636383 0.04742516949772835 0.07929859310388565
v 0.014141087420284748 0.035306837409734726 0.07983674854040146
v 0.020366616547107697 0.04690343886613846 0.07580022513866425
v 0.015179237350821495 0.030877338722348213 0.07625406980514526
v 0.02445198781788349 0.0495527982711792 0.07893465459346771
v 0.014871426858007908 0.03067805804312229 0.07977285981178284
v 0.024347327649593353 0.04893947020173073 0.07545195519924164
v 0.01720750704407692 0.026881419122219086 0.07607660442590714
v 0.029063157737255096 0.05028592050075531 0.07853125035762787
v 0.016990946605801582 0.026502368971705437 0.0795874297618866
v 0.028759976848959923 0.04964102804660797 0.07506590336561203
v 0.020366627722978592 0.02371024899184704 0.07580022513866425
v 0.03367433696985245 0.049552787095308304 0.07812781631946564
v 0.020292187109589577 0.02318851836025715 0.07929859310388565
v 0.03317263722419739 0.04893947020173073 0.07467984408140182
v 0.024347327649593353 0.021674219518899918 0.07545195519924164
v 0.03783413767814636 0.04742516949772835 0.0777638852596283
v 0.02445198781788349 0.021060898900032043 0.07893465459346771
v 0.03715333715081215 0.04690343886613846 0.07433157414197922
v 0.028759976848959923 0.020972657948732376 0.07506590336561203
v 0.04113536700606346 0.04411131888628006 0.07747506350278854
v 0.029063157737255096 0.020327769219875336 0.07853125035762787
v 0.04031245782971382 0.04373227059841156 0.07405518740415573
v 0.03317263722419739 0.021674219518899918 0.07467984408140182
v 0.04325489699840546 0.039935629814863205 0.0772896260023117
v 0.03367433696985245 0.021060898900032043 0.07812781631946564
v 0.0423407256603241 0.03973634913563728 0.0738777369260788
v 0.03715333715081215 0.023710237815976143 0.07433157414197922
v 0.043985236436128616 0.035306837409734726 0.07722572982311249
v 0.03783412650227547 0.02318851836025715 0.0777638852596283
v 0.04303961619734764 0.035306837409734726 0.07381659001111984
v 0.040312446653842926 0.026881419122219086 0.07405518740415573
v 0.04325489699840546 0.030678048729896545 0.0772896260023117
v 0.04113536700606346 0.02650235965847969 0.07747506350278854
v 0.0423407256603241 0.030877329409122467 0.0738777369260788
v 0.028229927644133568 0.04181442782282829 0.09326793998479843
v 0.02841307781636715 0.041307996958494186 0.09347333014011383
v 0.0303555466234684 0.04161683842539787 0.0933033749461174
v 0.026329727843403816 0.04084252938628197 0.09343418478965759
v 0.026660747826099396 0.040411729365587234 0.09362662583589554
v 0.030336327850818634 0.04214932769536972 0.09308364987373352
v 0.03229802846908569 0.041307996958494186 0.09313342720270157
v 0.024821706116199493 0.03932875022292137 0.09356611967086792
v 0.025270087644457817 0.039015769958496094 0.0937482938170433
v 0.03244272619485855 0.04181442782282829 0.09289935976266861
v 0.0340503565967083 0.040411729365587234 0.09298011660575867
v 0.02385350689291954 0.03742128983139992 0.09365081787109375
v 0.02437722682952881 0.037256740033626556 0.09382640570402145
v 0.0343429371714592 0.04084251821041107 0.09273311495780945
v 0.035441018640995026 0.0390157587826252 0.0928584486246109
v 0.023519886657595634 0.035306837409734726 0.0936800092458725
v 0.024069566279649734 0.035306837409734726 0.09385332465171814
v 0.035850945860147476 0.03932875022292137 0.09260118752717972
v 0.036333877593278885 0.037256740033626556 0.09278032928705215
v 0.02385350689291954 0.03319239988923073 0.09365081787109375
v 0.02437722682952881 0.03335694968700409 0.09382640570402145
v 0.03681914880871773 0.03742127865552902 0.0925164744257927
v 0.03664153814315796 0.035306837409734726 0.09275341778993607
v 0.02482171729207039 0.03128492832183838 0.09356611967086792
v 0.025270087644457817 0.03159791976213455 0.0937482938170433
v 0.037152767181396484 0.035306837409734726 0.09248728305101395
v 0.036333877593278885 0.03335694968700409 0.09278032928705215
v 0.026329727843403816 0.02977115847170353 0.09343418478965759
v 0.026660747826099396 0.030201949179172516 0.09362662583589554
v 0.03681914880871773 0.03319239988923073 0.0925164744257927
v 0.035441018640995026 0.03159791976213455 0.0928584486246109
v 0.028229936957359314 0.028799258172512054 0.09326793998479843
v 0.02841307781636715 0.029305677860975266 0.09347333014011383
v 0.035850945860147476 0.03128492832183838 0.09260118752717972
v 0.0340503565967083 0.030201949179172516 0.09298011660575867
v 0.030336327850818634 0.028464369475841522 0.09308364987373352
v 0.0303555466234684 0.028996849432587624 0.0933033749461174
v 0.0343429259955883 0.02977115847170353 0.09273311495780945
v 0.03229802846908569 0.029305677860975266 0.09313342720270157
v 0.03244272619485855 0.028799258172512054 0.09289935976266861
v 0.03988276794552803 0.035306837409734726 0.09023706614971161
v 0.03940698876976967 0.032291390001773834 0.09027869999408722
v 0.03802620619535446 0.029571108520030975 0.09039949625730515
v 0.0358755961060524 0.027412287890911102 0.09058764576911926
v 0.033165667206048965 0.026026228442788124 0.09082473814487457
v 0.030161697417497635 0.025548629462718964 0.09108754992485046
v 0.03940698876976967 0.03832229971885681 0.09027869999408722
v 0.02715771645307541 0.026026228442788124 0.09135035425424576
v 0.03802620619535446 0.04104257747530937 0.09039949625730515
v 0.024447787553071976 0.027412287890911102 0.09158744663000107
v 0.0358755961060524 0.043201398104429245 0.09058765321969986
v 0.022297177463769913 0.029571108520030975 0.09177560359239578
v 0.033165667206048965 0.04458744823932648 0.09082473814487457
v 0.020916396751999855 0.032291390001773834 0.0918964073061943
v 0.03016168624162674 0.04506506025791168 0.09108754992485046
v 0.020440617576241493 0.035306837409734726 0.09193803369998932
v 0.02715771645307541 0.04458744823932648 0.09135035425424576
v 0.020916396751999855 0.03832229971885681 0.0918964073061943
v 0.024447787553071976 0.043201398104429245 0.09158745408058167
v 0.022297177463769913 0.04104257747530937 0.09177560359239578
v 0.02985013648867607 0.04811809957027435 0.08752650022506714
v 0.025906307622790337 0.04749106988310814 0.08787154406309128
v 0.022348526865243912 0.04567136988043785 0.08818281441926956
v 0.019525056704878807 0.04283710941672325 0.08842982351779938
v 0.017712276428937912 0.03926573693752289 0.0885884240269661
v 0.017087647691369057 0.035306837409734726 0.08864307403564453
v 0.033793967217206955 0.04749106988310814 0.0871814638376236
v 0.017712287604808807 0.03134794905781746 0.0885884240269661
v 0.037351757287979126 0.045671358704566956 0.08687019348144531
v 0.019525067880749702 0.027776578441262245 0.08842982351779938
v 0.04017522558569908 0.04283710941672325 0.0866231694817543
v 0.022348536178469658 0.024942317977547646 0.08818281441926956
v 0.04198799654841423 0.03926573693752289 0.08646457642316818
v 0.025906307622790337 0.023122617974877357 0.08787154406309128
v 0.04261264577507973 0.035306837409734726 0.08640993386507034
v 0.029850147664546967 0.022495588287711143 0.08752650022506714
v 0.04198799654841423 0.03134794905781746 0.08646457642316818
v 0.033793967217206955 0.023122617974877357 0.0871814638376236
v 0.04017522558569908 0.027776578441262245 0.0866231694817543
v 0.037351757287979126 0.024942317977547646 0.08687019348144531
v 0.043313898146152496 0.039821647107601166 0.0819888487458229
v 0.04402625560760498 0.035306837409734726 0.08192652463912964
v 0.043313898146152496 0.030792029574513435 0.0819888487458229
v 0.04124656692147255 0.02671915851533413 0.08216970413923264
v 0.03802661597728729 0.0234869085252285 0.08245144039392471
v 0.033969245851039886 0.021411677822470665 0.08280639350414276
v 0.04124656692147255 0.04389452934265137 0.08216970413923264
v 0.029471617192029953 0.020696599036455154 0.0831998959183693
v 0.03802661597728729 0.04712677747011185 0.08245144039392471
v 0.024973977357149124 0.021411677822470665 0.08359338343143463
v 0.033969245851039886 0.04920201003551483 0.08280639350414276
v 0.020916607230901718 0.0234869085252285 0.08394834399223328
v 0.029471617192029953 0.04991708695888519 0.0831998959183693
v 0.017696667462587357 0.02671915851533413 0.08423008024692535
v 0.024973977357149124 0.04920201003551483 0.08359338343143463
v 0.015629326924681664 0.030792029574513435 0.08441093564033508
v 0.020916607230901718 0.04712677747011185 0.08394834399223328
v 0.014916966669261456 0.035306837409734726 0.08447325974702835
v 0.01769665628671646 0.04389452934265137 0.08423008024692535
v 0.015629317611455917 0.03982165828347206 0.08441093564033508
v 0.02445198781788349 0.0495527982711792 0.07893465459346771
v 0.02029217779636383 0.04742516949772835 0.07929859310388565
v 0.029063157737255096 0.05028592050075531 0.07853125035762787
v 0.016990946605801582 0.04411131888628006 0.0795874297618866
v 0.014871416613459587 0.039935629814863205 0.07977285981178284
v 0.03367433696985245 0.049552787095308304 0.07812781631946564
v 0.014141087420284748 0.035306837409734726 0.07983674854040146
v 0.014871426858007908 0.03067805804312229 0.07977285981178284
v 0.03783413767814636 0.04742516949772835 0.0777638852596283
v 0.016990946605801582 0.026502368971705437 0.0795874297618866
v 0.04113536700606346 0.04411131888628006 0.07747506350278854
v 0.020292187109589577 0.02318851836025715 0.07929859310388565
v 0.04325489699840546 0.039935629814863205 0.0772896260023117
v 0.02445198781788349 0.021060898900032043 0.07893465459346771
v 0.043985236436128616 0.035306837409734726 0.07722572982311249
v 0.029063157737255096 0.020327769219875336 0.07853125035762787
v 0.04325489699840546 0.030678048729896545 0.0772896260023117
v 0.03367433696985245 0.021060898900032043 0.07812781631946564
v 0.04113536700606346 0.02650235965847969 0.07747506350278854
v 0.03783412650227547 0.02318851836025715 0.0777638852596283
v -0.04229479283094406 0.039231907576322556 0.07358934730291367
v -0.043208952993154526 0.03943118825554848 0.07700123637914658
v -0.041089434176683426 0.04360687732696533 0.07718666642904282
v -0.04026651382446289 0.04322782903909683 0.0737667977809906
v -0.04299367219209671 0.0348023995757103 0.07352820038795471
v -0.03778819367289543 0.04692072793841362 0.07747549563646317
v -0.04393928498029709 0.0348023995757103 0.07693734019994736
v -0.037107404321432114 0.04639899730682373 0.07404318451881409
v -0.042294781655073166 0.03037288784980774 0.07358934730291367
v -0.03362839296460152 0.049048349261283875 0.0778394266963005
v -0.043208952993154526 0.030173607170581818 0.07700123637914658
v -0.03312669321894646 0.048435017466545105 0.0743914544582367
v -0.04026651382446289 0.026376977562904358 0.0737667977809906
v -0.029017213732004166 0.04978147894144058 0.07824286073446274
v -0.04108942300081253 0.025997918099164963 0.07718667387962341
v -0.028714044019579887 0.04913658648729324 0.0747775137424469
v -0.03710739314556122 0.023205798119306564 0.07404318451881409
v -0.02440604381263256 0.049048349261283875 0.07864626497030258
v -0.03778819367289543 0.02268407866358757 0.07747549563646317
v -0.024301383644342422 0.048435017466545105 0.07516356557607651
v -0.03312669321894646 0.02116977795958519 0.0743914544582367
v -0.020246243104338646 0.04692072793841362 0.07901021093130112
v -0.03362839296460152 0.020556457340717316 0.0778394266963005
v -0.02032068371772766 0.04639899730682373 0.07551183551549911
v -0.028714044019579887 0.020468218252062798 0.0747775137424469
v -0.01694500260055065 0.04360687732696533 0.07929904013872147
v -0.029017213732004166 0.019823327660560608 0.07824286073446274
v -0.01716156303882599 0.04322781786322594 0.075788214802742
v -0.02430139295756817 0.02116977795958519 0.07516356557607651
v -0.014825482852756977 0.03943117707967758 0.0794844701886177
v -0.02440604381263256 0.020556457340717316 0.07864626497030258
v -0.015133293345570564 0.039231907576322556 0.07596568018198013
v -0.02032068371772766 0.023205798119306564 0.07551183551549911
v -0.014095143415033817 0.0348023995757103 0.07954835891723633
v -0.020246243104338646 0.02268407866358757 0.07901021093130112
v -0.01443440280854702 0.0348023995757103 0.0760268047451973
v -0.017161572352051735 0.026376977562904358 0.075788214802742
v -0.014825482852756977 0.030173607170581818 0.0794844701886177
v -0.016945013776421547 0.025997918099164963 0.07929904013872147
v -0.015133293345570564 0.03037288784980774 0.07596568018198013
v -0.03239678218960762 0.041309986263513565 0.09261097013950348
v -0.03225209191441536 0.04080355912446976 0.09284503757953644
v -0.030309613794088364 0.04111238941550255 0.09301498532295227
v -0.03429699316620827 0.040338076651096344 0.09244472533464432
v -0.03400442376732826 0.0399072989821434 0.09269172698259354
v -0.030290383845567703 0.041644878685474396 0.09279526025056839
v -0.02836713381111622 0.04080355912446976 0.0931849405169487
v -0.035805001854896545 0.038824308663606644 0.09231279790401459
v -0.03539508208632469 0.03851131722331047 0.09257005900144577
v -0.028183992952108383 0.041309986263513565 0.0929795503616333
v -0.026614803820848465 0.0399072989821434 0.09333823621273041
v -0.036773212254047394 0.036916837096214294 0.09222808480262756
v -0.036287933588027954 0.03675228729844093 0.09249193966388702
v -0.026283783838152885 0.040338076651096344 0.09314579516649246
v -0.025224143639206886 0.03851131722331047 0.09345990419387817
v -0.037106823176145554 0.0348023995757103 0.09219890087842941
v -0.03659559413790703 0.0348023995757103 0.09246502816677094
v -0.024775773286819458 0.038824308663606644 0.09327773004770279
v -0.024331282824277878 0.03675228729844093 0.09353801608085632
v -0.036773212254047394 0.032687958329916 0.09222808480262756
v -0.036287933588027954 0.032852496951818466 0.09249193966388702
v -0.02380756288766861 0.036916837096214294 0.09336242824792862
v -0.0240236334502697 0.0348023995757103 0.09356493502855301
v -0.035805001854896545 0.0307804886251688 0.09231279790401459
v -0.035395074635744095 0.031093478202819824 0.09257005900144577
v -0.0234739538282156 0.0348023995757103 0.09339161962270737
v -0.024331282824277878 0.032852496951818466 0.09353801608085632
v -0.03429699316620827 0.02926671877503395 0.09244472533464432
v -0.03400442376732826 0.029697507619857788 0.09269172698259354
v -0.02380756288766861 0.032687958329916 0.09336242824792862
v -0.025224143639206886 0.031093478202819824 0.09345990419387817
v -0.03239678218960762 0.028294818475842476 0.09261097013950348
v -0.03225208446383476 0.028801238164305687 0.09284503757953644
v -0.024775773286819458 0.0307804886251688 0.09327773004770279
v -0.026614803820848465 0.029697507619857788 0.09333823621273041
v -0.030290383845567703 0.02795991860330105 0.09279526025056839
v -0.030309613794088364 0.028492407873272896 0.09301498532295227
v -0.026283783838152885 0.02926671877503395 0.09314579516649246
v -0.02836713381111622 0.028801238164305687 0.0931849405169487
v -0.028183992952108383 0.028294818475842476 0.0929795503616333
v -0.020394673570990562 0.0348023995757103 0.09164964407682419
v -0.020870452746748924 0.03178693726658821 0.09160801768302917
v -0.022251233458518982 0.029066668823361397 0.09148721396923065
v -0.024401843547821045 0.026907838881015778 0.09129905700683594
v -0.027111772447824478 0.025521788746118546 0.09106196463108063
v -0.030115753412246704 0.025044187903404236 0.09079916030168533
v -0.020870452746748924 0.03781784698367119 0.09160801768302917
v -0.033119723200798035 0.025521788746118546 0.09053634852170944
v -0.022251233458518982 0.04053812846541405 0.09148721396923065
v -0.03582966327667236 0.026907838881015778 0.09029925614595413
v -0.024401843547821045 0.04269695654511452 0.09129905700683594
v -0.03798026219010353 0.029066668823361397 0.09011110663414001
v -0.027111772447824478 0.04408300668001175 0.09106196463108063
v -0.03936104476451874 0.03178693726658821 0.08999031037092209
v -0.030115753412246704 0.044560618698596954 0.09079916030168533
v -0.0398368239402771 0.0348023995757103 0.08994867652654648
v -0.03311973437666893 0.04408300668001175 0.09053634852170944
v -0.039361052215099335 0.03781784698367119 0.08999031037092209
v -0.03582966327667236 0.04269695654511452 0.09029925614595413
v -0.037980273365974426 0.04053813964128494 0.09011110663414001
v -0.029804203659296036 0.04761364683508873 0.08723811060190201
v -0.03374803438782692 0.04698662832379341 0.08689307421445847
v -0.037305813282728195 0.04516691714525223 0.08658180385828018
v -0.04012928158044815 0.042332667857408524 0.08633477985858917
v -0.041942063719034195 0.03876129910349846 0.08617618680000305
v -0.042566701769828796 0.0348023995757103 0.08612154424190521
v -0.025860372930765152 0.04698662832379341 0.08758315443992615
v -0.0419420525431633 0.03084350749850273 0.08617618680000305
v -0.022302594035863876 0.04516691714525223 0.08789442479610443
v -0.04012928158044815 0.027272138744592667 0.08633477985858917
v -0.01947912387549877 0.04233265668153763 0.08814143389463425
v -0.037305813282728195 0.024437878280878067 0.08658180385828018
v -0.017666343599557877 0.038761287927627563 0.08830003440380096
v -0.03374803438782692 0.022618167102336884 0.08689307421445847
v -0.017041703686118126 0.0348023995757103 0.0883546844124794
v -0.029804203659296036 0.021991148591041565 0.08723811060190201
v -0.017666343599557877 0.030843498185276985 0.08830003440380096
v -0.025860372930765152 0.022618167102336884 0.08758315443992615
v -0.01947912387549877 0.027272138744592667 0.08814143389463425
v -0.022302594035863876 0.024437878280878067 0.08789442479610443
v -0.015583382919430733 0.039317209273576736 0.08412254601716995
v -0.0148710235953331 0.0348023995757103 0.08418487012386322
v -0.015583382919430733 0.030287588015198708 0.08412254601716995
v -0.017650723457336426 0.02621471881866455 0.08394169062376022
v -0.020870663225650787 0.022982468828558922 0.08365995436906815
v -0.02492804266512394 0.02090722881257534 0.0833049938082695
v -0.017650723457336426 0.043390076607465744 0.08394169062376022
v -0.029425673186779022 0.020192157477140427 0.08291150629520416
v -0.020870663225650787 0.04662232846021652 0.08365995436906815
v -0.033923301845788956 0.020907238125801086 0.08251800388097763
v -0.02492804266512394 0.04869755730032921 0.0833049938082695
v -0.03798067197203636 0.022982468828558922 0.08216305077075958
v -0.029425673186779022 0.04941263794898987 0.08291150629520416
v -0.04120062291622162 0.02621471881866455 0.0818813145160675
v -0.033923301845788956 0.04869755730032921 0.08251800388097763
v -0.043267954140901566 0.030287588015198708 0.08170045912265778
v -0.03798068314790726 0.04662232846021652 0.08216305077075958
v -0.04398031160235405 0.0348023995757103 0.08163813501596451
v -0.04120062291622162 0.043390076607465744 0.0818813145160675
v -0.04326796159148216 0.039317209273576736 0.08170045912265778
v -0.03362839296460152 0.049048349261283875 0.0778394266963005
v -0.03778819367289543 0.04692072793841362 0.07747549563646317
v -0.029017213732004166 0.04978147894144058 0.07824286073446274
v -0.041089434176683426 0.04360687732696533 0.07718666642904282
v -0.043208952993154526 0.03943118825554848 0.07700123637914658
v -0.02440604381263256 0.049048349261283875 0.07864626497030258
v -0.04393928498029709 0.0348023995757103 0.07693734019994736
v -0.043208952993154526 0.030173607170581818 0.07700123637914658
v -0.020246243104338646 0.04692072793841362 0.07901021093130112
v -0.04108942300081253 0.025997918099164963 0.07718667387962341
v -0.01694500260055065 0.04360687732696533 0.07929904013872147
v -0.03778819367289543 0.02268407866358757 0.07747549563646317
v -0.014825482852756977 0.03943117707967758 0.0794844701886177
v -0.03362839296460152 0.020556457340717316 0.0778394266963005
v -0.014095143415033817 0.0348023995757103 0.07954835891723633
v -0.029017213732004166 0.019823327660560608 0.07824286073446274
v -0.014825482852756977 0.030173607170581818 0.0794844701886177
v -0.02440604381263256 0.020556457340717316 0.07864626497030258
v -0.016945013776421547 0.025997918099164963 0.07929904013872147
v -0.020246243104338646 0.02268407866358757 0.07901021093130112
v 0.02721741609275341 0.03756602853536606 0.09311181306838989
v 0.025270087644457817 0.039015769958496094 0.0937482938170433
v 0.02437722682952881 0.037256740033626556 0.09382640570402145
v 0.026673557236790657 0.03649456799030304 0.09315939992666245
v 0.024069566279649734 0.035306837409734726 0.09385332465171814
v 0.02806449681520462 0.03841634839773178 0.09303770959377289
v 0.026660747826099396 0.040411729365587234 0.09362662583589554
v 0.02648615650832653 0.035306837409734726 0.09317578375339508
v 0.02437722682952881 0.03335694968700409 0.09382640570402145
v 0.03029535710811615 0.035306837409734726 0.09261530637741089
v 0.029131876304745674 0.03896227851510048 0.09294431656599045
v 0.026673557236790657 0.03411911800503731 0.09315939992666245
v 0.02841307781636715 0.041307996958494186 0.09347333014011383
v 0.025270087644457817 0.03159791976213455 0.0937482938170433
v 0.030315086245536804 0.03915039822459221 0.09284080564975739
v 0.0303555466234684 0.04161683842539787 0.0933033749461174
v 0.02721741609275341 0.03304765745997429 0.09311181306838989
v 0.026660747826099396 0.030201949179172516 0.09362662583589554
v 0.03149828687310219 0.03896227851510048 0.09273728728294373
v 0.03229802846908569 0.041307996958494186 0.09313342720270157
v 0.02806449681520462 0.032197337597608566 0.09303770959377289
v 0.02841307781636715 0.029305677860975266 0.09347333014011383
v 0.03256567567586899 0.03841634839773178 0.09264390915632248
v 0.0340503565967083 0.040411729365587234 0.09298011660575867
v 0.029131876304745674 0.03165140748023987 0.09294431656599045
v 0.03341274708509445 0.03756602853536606 0.09256978332996368
v 0.030315086245536804 0.03146328777074814 0.09284080564975739
v 0.0303555466234684 0.028996849432587624 0.0933033749461174
v 0.035441018640995026 0.0390157587826252 0.0928584486246109
v 0.03229802846908569 0.029305677860975266 0.09313342720270157
v 0.033956605941057205 0.03649456799030304 0.09252220392227173
v 0.036333877593278885 0.037256740033626556 0.09278032928705215
v 0.03149828687310219 0.03165140748023987 0.09273729473352432
v 0.0340503565967083 0.030201949179172516 0.09298011660575867
v 0.03414400666952133 0.035306837409734726 0.09250582009553909
v 0.03664153814315796 0.035306837409734726 0.09275341778993607
v 0.03256566822528839 0.032197337597608566 0.09264389425516129
v 0.035441018640995026 0.03159791976213455 0.0928584486246109
v 0.033956605941057205 0.03411911800503731 0.09252220392227173
v 0.036333877593278885 0.03335694968700409 0.09278032928705215
v 0.03341274708509445 0.03304765745997429 0.09256978332996368
v -0.033366814255714417 0.037061579525470734 0.09228140115737915
v -0.03539508208632469 0.03851131722331047 0.09257005900144577
v -0.036287933588027954 0.03675228729844093 0.09249193966388702
v -0.03391067311167717 0.035990118980407715 0.0922338142991066
v -0.03659559413790703 0.0348023995757103 0.09246502816677094
v -0.03251973167061806 0.037911899387836456 0.09235550463199615
v -0.03400442376732826 0.0399072989821434 0.09269172698259354
v -0.034098073840141296 0.0348023995757103 0.09221743047237396
v -0.036287933588027954 0.032852496951818466 0.09249193966388702
v -0.03024941310286522 0.0348023995757103 0.09232691675424576
v -0.03145234286785126 0.03845783695578575 0.0924488976597786
v -0.03391067311167717 0.03361466899514198 0.0922338142991066
v -0.03225209191441536 0.04080355912446976 0.09284503757953644
v -0.035395074635744095 0.031093478202819824 0.09257005900144577
v -0.030269144102931023 0.038645949214696884 0.09255241602659225
v -0.030309613794088364 0.04111238941550255 0.09301498532295227
v -0.033366814255714417 0.032543208450078964 0.09228140115737915
v -0.03400442376732826 0.029697507619857788 0.09269172698259354
v -0.02908594347536564 0.03845783695578575 0.09265592694282532
v -0.02836713381111622 0.04080355912446976 0.0931849405169487
v -0.03251973167061806 0.03169289976358414 0.09235550463199615
v -0.03225208446383476 0.028801238164305687 0.09284503757953644
v -0.02801855280995369 0.037911899387836456 0.09274931997060776
v -0.026614803820848465 0.0399072989821434 0.09333823621273041
v -0.03145234286785126 0.031146958470344543 0.0924488976597786
v -0.02717147395014763 0.037061579525470734 0.09282343089580536
v -0.030269144102931023 0.030958838760852814 0.09255241602659225
v -0.030309613794088364 0.028492407873272896 0.09301498532295227
v -0.025224143639206886 0.03851131722331047 0.09345990419387817
v -0.02836713381111622 0.028801238164305687 0.0931849405169487
v -0.026627613231539726 0.035990118980407715 0.09287101030349731
v -0.024331282824277878 0.03675228729844093 0.09353801608085632
v -0.02908594347536564 0.031146958470344543 0.09265592694282532
v -0.026614803820848465 0.029697507619857788 0.09333823621273041
v -0.0264402125030756 0.0348023995757103 0.09288739413022995
v -0.0240236334502697 0.0348023995757103 0.09356493502855301
v -0.02801855280995369 0.03169289976358414 0.09274931997060776
v -0.025224143639206886 0.031093478202819824 0.09345990419387817
v -0.026627613231539726 0.03361466899514198 0.09287101030349731
v -0.024331282824277878 0.032852496951818466 0.09353801608085632
v -0.02717147395014763 0.032543208450078964 0.09282343089580536

vt 0.9550557 0.6478565
vt 0.9755285 0.6545085
vt 0.9045087 0.7938926
vt 0.8870935 0.7812399
vt 0.9784737 0.4999999
vt 0.7938929 0.9045086
vt 1.0 0.4999999
vt 0.78124 0.8870934
vt 0.9550555 0.3521435
vt 0.6545086 0.9755284
vt 0.9755282 0.3454915
vt 0.6478566 0.9550556
vt 0.8870933 0.2187602
vt 0.5 1.0
vt 0.9045085 0.2061074
vt 0.5 0.9784738
vt 0.7812397 0.1129066
vt 0.3454915 0.9755284
vt 0.7938926 0.09549153
vt 0.3521435 0.9550556
vt 0.6478565 0.04494452
vt 0.2061074 0.9045086
vt 0.6545085 0.02447176
vt 0.2187603 0.8870934
vt 0.5 0.02152628
vt 0.09549153 0.7938926
vt 0.5 0.0
vt 0.1129067 0.7812397
vt 0.3521435 0.04494447
vt 0.02447176 0.6545085
vt 0.3454915 0.02447176
vt 0.04494452 0.6478565
vt 0.2187603 0.1129066
vt 0.0 0.4999999
vt 0.2061074 0.09549147
vt 0.02152634 0.4999999
vt 0.1129067 0.2187602
vt 0.02447176 0.3454914
vt 0.09549153 0.2061073
vt 0.04494452 0.3521434
vt 0.57058 0.7172226
vt 0.5650874 0.7003181
vt 0.5 0.710627
vt 0.634251 0.6847805
vt 0.6238035 0.6704009
vt 0.5 0.7284013
vt 0.4349127 0.7003181
vt 0.6847806 0.6342509
vt 0.6704009 0.6238034
vt 0.4294202 0.7172225
vt 0.3761966 0.6704007
vt 0.7172227 0.5705799
vt 0.7003183 0.5650873
vt 0.3657491 0.6847805
vt 0.3295993 0.6238034
vt 0.7284013 0.4999999
vt 0.710627 0.4999999
vt 0.3152195 0.6342509
vt 0.2996819 0.5650873
vt 0.7172226 0.4294201
vt 0.7003182 0.4349127
vt 0.2827775 0.5705798
vt 0.2893731 0.4999999
vt 0.6847806 0.3657491
vt 0.6704009 0.3761966
vt 0.2715988 0.4999999
vt 0.2996819 0.4349127
vt 0.6342509 0.3152195
vt 0.6238035 0.3295991
vt 0.2827775 0.4294201
vt 0.3295993 0.3761965
vt 0.5705799 0.2827775
vt 0.5650873 0.2996818
vt 0.3152195 0.3657491
vt 0.3761966 0.3295991
vt 0.5 0.2715987
vt 0.5 0.289373
vt 0.3657492 0.3152195
vt 0.4349127 0.2996818
vt 0.4294202 0.2827774
vt 0.1742719 0.4999999
vt 0.1902142 0.3993444
vt 0.2364805 0.3085418
vt 0.3085419 0.2364804
vt 0.3993446 0.1902141
vt 0.5 0.1742718
vt 0.1902142 0.6006554
vt 0.6006556 0.1902141
vt 0.2364805 0.6914582
vt 0.6914582 0.2364804
vt 0.3085418 0.7635195
vt 0.7635195 0.3085418
vt 0.3993445 0.8097858
vt 0.8097858 0.3993444
vt 0.5 0.8257282
vt 0.8257282 0.4999999
vt 0.6006557 0.8097858
vt 0.8097861 0.6006556
vt 0.6914583 0.7635196
vt 0.7635198 0.6914582
vt 0.5 0.9276385
vt 0.6321476 0.9067084
vt 0.7513597 0.8459668
vt 0.8459669 0.7513596
vt 0.9067085 0.6321476
vt 0.9276383 0.4999999
vt 0.3678525 0.9067082
vt 0.9067082 0.3678524
vt 0.2486405 0.8459667
vt 0.8459667 0.2486404
vt 0.1540333 0.7513595
vt 0.7513595 0.1540333
vt 0.09329176 0.6321474
vt 0.6321476 0.0932917
vt 0.07236171 0.4999999
vt 0.5 0.07236159
vt 0.09329176 0.3678524
vt 0.3678526 0.0932917
vt 0.1540333 0.2486404
vt 0.2486405 0.1540333
vt 0.03618085 0.6507039
vt 0.0123117 0.4999999
vt 0.03618085 0.349296
vt 0.1054519 0.2133439
vt 0.213344 0.1054517
vt 0.3492961 0.03618073
vt 0.1054518 0.786656
vt 0.5 0.01231158
vt 0.213344 0.8945482
vt 0.650704 0.03618085
vt 0.349296 0.9638193
vt 0.786656 0.1054518
vt 0.5 0.9876885
vt 0.8945482 0.213344
vt 0.6507041 0.9638193
vt 0.9638191 0.349296
vt 0.7866561 0.8945482
vt 0.9876883 0.4999999
vt 0.8945484 0.7866561
vt 0.9638195 0.650704
vt 0.6545086 0.9755284
vt 0.7938929 0.9045086
vt 0.5 1.0
vt 0.9045087 0.7938926
vt 0.9755285 0.6545085
vt 0.3454915 0.9755284
vt 1.0 0.4999999
vt 0.9755282 0.3454915
vt 0.2061074 0.9045086
vt 0.9045085 0.2061074
vt 0.09549153 0.7938926
vt 0.7938926 0.09549153
vt 0.02447176 0.6545085
vt 0.6545085 0.02447176
vt 0.0 0.4999999
vt 0.5 0.0
vt 0.02447176 0.3454914
vt 0.3454915 0.02447176
vt 0.09549153 0.2061073
vt 0.2061074 0.09549147
vt 0.9550557 0.6478565
vt 0.9755285 0.6545085
vt 0.9045087 0.7938926
vt 0.8870935 0.7812399
vt 0.9784737 0.4999999
vt 0.7938929 0.9045086
vt 1.0 0.4999999
vt 0.78124 0.8870934
vt 0.9550555 0.3521435
vt 0.6545086 0.9755284
vt 0.9755282 0.3454915
vt 0.6478566 0.9550556
vt 0.8870933 0.2187602
vt 0.5 1.0
vt 0.9045085 0.2061074
vt 0.5 0.9784738
vt 0.7812397 0.1129066
vt 0.3454915 0.9755284
vt 0.7938926 0.09549153
vt 0.3521435 0.9550556
vt 0.6478565 0.04494452
vt 0.2061074 0.9045086
vt 0.6545085 0.02447176
vt 0.2187603 0.8870934
vt 0.5 0.02152628
vt 0.09549153 0.7938926
vt 0.5 0.0
vt 0.1129067 0.7812397
vt 0.3521435 0.04494447
vt 0.02447176 0.6545085
vt 0.3454915 0.02447176
vt 0.04494452 0.6478565
vt 0.2187603 0.1129066
vt 0.0 0.4999999
vt 0.2061074 0.09549147
vt 0.02152634 0.4999999
vt 0.1129067 0.2187602
vt 0.02447176 0.3454914
vt 0.09549153 0.2061073
vt 0.04494452 0.3521434
vt 0.57058 0.7172226
vt 0.5650874 0.7003181
vt 0.5 0.710627
vt 0.634251 0.6847805
vt 0.6238035 0.6704009
vt 0.5 0.7284013
vt 0.4349127 0.7003181
vt 0.6847806 0.6342509
vt 0.6704009 0.6238034
vt 0.4294202 0.7172225
vt 0.3761966 0.6704007
vt 0.7172227 0.5705799
vt 0.7003183 0.5650873
vt 0.3657491 0.6847805
vt 0.3295993 0.6238034
vt 0.7284013 0.4999999
vt 0.710627 0.4999999
vt 0.3152195 0.6342509
vt 0.2996819 0.5650873
vt 0.7172226 0.4294201
vt 0.7003182 0.4349127
vt 0.2827775 0.5705798
vt 0.2893731 0.4999999
vt 0.6847806 0.3657491
vt 0.6704009 0.3761966
vt 0.2715988 0.4999999
vt 0.2996819 0.4349127
vt 0.6342509 0.3152195
vt 0.6238035 0.3295991
vt 0.2827775 0.4294201
vt 0.3295993 0.3761965
vt 0.5705799 0.2827775
vt 0.5650873 0.2996818
vt 0.3152195 0.3657491
vt 0.3761966 0.3295991
vt 0.5 0.2715987
vt 0.5 0.289373
vt 0.3657492 0.3152195
vt 0.4349127 0.2996818
vt 0.4294202 0.2827774
vt 0.1742719 0.4999999
vt 0.1902142 0.3993444
vt 0.2364805 0.3085418
vt 0.3085419 0.2364804
vt 0.3993446 0.1902141
vt 0.5 0.1742718
vt 0.1902142 0.6006554
vt 0.6006556 0.1902141
vt 0.2364805 0.6914582
vt 0.6914582 0.2364804
vt 0.3085418 0.7635195
vt 0.7635195 0.3085418
vt 0.3993445 0.8097858
vt 0.8097858 0.3993444
vt 0.5 0.8257282
vt 0.8257282 0.4999999
vt 0.6006557 0.8097858
vt 0.8097861 0.6006556
vt 0.6914583 0.7635196
vt 0.7635198 0.6914582
vt 0.5 0.9276385
vt 0.6321476 0.9067084
vt 0.7513597 0.8459668
vt 0.8459669 0.7513596
vt 0.9067085 0.6321476
vt 0.9276383 0.4999999
vt 0.3678525 0.9067082
vt 0.9067082 0.3678524
vt 0.2486405 0.8459667
vt 0.8459667 0.2486404
vt 0.1540333 0.7513595
vt 0.7513595 0.1540333
vt 0.09329176 0.6321474
vt 0.6321476 0.0932917
vt 0.07236171 0.4999999
vt 0.5 0.07236159
vt 0.09329176 0.3678524
vt 0.3678526 0.0932917
vt 0.1540333 0.2486404
vt 0.2486405 0.1540333
vt 0.03618085 0.6507039
vt 0.0123117 0.4999999
vt 0.03618085 0.349296
vt 0.1054519 0.2133439
vt 0.213344 0.1054517
vt 0.3492961 0.03618073
vt 0.1054518 0.786656
vt 0.5 0.01231158
vt 0.213344 0.8945482
vt 0.650704 0.03618085
vt 0.349296 0.9638193
vt 0.786656 0.1054518
vt 0.5 0.9876885
vt 0.8945482 0.213344
vt 0.6507041 0.9638193
vt 0.9638191 0.349296
vt 0.7866561 0.8945482
vt 0.9876883 0.4999999
vt 0.8945484 0.7866561
vt 0.9638195 0.650704
vt 0.6545086 0.9755284
vt 0.7938929 0.9045086
vt 0.5 1.0
vt 0.9045087 0.7938926
vt 0.9755285 0.6545085
vt 0.3454915 0.9755284
vt 1.0 0.4999999
vt 0.9755282 0.3454915
vt 0.2061074 0.9045086
vt 0.9045085 0.2061074
vt 0.09549153 0.7938926
vt 0.7938926 0.09549153
vt 0.02447176 0.6545085
vt 0.6545085 0.02447176
vt 0.0 0.4999999
vt 0.5 0.0
vt 0.02447176 0.3454914
vt 0.3454915 0.02447176
vt 0.09549153 0.2061073
vt 0.2061074 0.09549147
vt 0.6037949 0.5754113
vt 0.6704009 0.6238034
vt 0.7003183 0.5650873
vt 0.6220182 0.539646
vt 0.710627 0.4999999
vt 0.5754114 0.6037948
vt 0.6238035 0.6704009
vt 0.6282976 0.4999999
vt 0.7003182 0.4349127
vt 0.5 0.4999999
vt 0.5396461 0.6220181
vt 0.6220182 0.4603539
vt 0.5650874 0.7003181
vt 0.6704009 0.3761966
vt 0.5000001 0.6282974
vt 0.5 0.710627
vt 0.6037949 0.4245886
vt 0.6238035 0.3295991
vt 0.460354 0.6220181
vt 0.4349127 0.7003181
vt 0.5754114 0.3962051
vt 0.5650873 0.2996818
vt 0.4245887 0.6037948
vt 0.3761966 0.6704007
vt 0.5396461 0.3779818
vt 0.3962052 0.5754113
vt 0.5000001 0.3717024
vt 0.5 0.289373
vt 0.3295993 0.6238034
vt 0.4349127 0.2996818
vt 0.3779819 0.539646
vt 0.2996819 0.5650873
vt 0.460354 0.3779818
vt 0.3761966 0.3295991
vt 0.3717026 0.4999999
vt 0.2893731 0.4999999
vt 0.4245887 0.3962051
vt 0.3295993 0.3761965
vt 0.3779819 0.4603539
vt 0.2996819 0.4349127
vt 0.3962052 0.4245886
vt 0.6037949 0.5754113
vt 0.6704009 0.6238034
vt 0.7003183 0.5650873
vt 0.6220182 0.539646
vt 0.710627 0.4999999
vt 0.5754114 0.6037948
vt 0.6238035 0.6704009
vt 0.6282976 0.4999999
vt 0.7003182 0.4349127
vt 0.5 0.4999999
vt 0.5396461 0.6220181
vt 0.6220182 0.4603539
vt 0.5650874 0.7003181
vt 0.6704009 0.3761966
vt 0.5000001 0.6282974
vt 0.5 0.710627
vt 0.6037949 0.4245886
vt 0.6238035 0.3295991
vt 0.460354 0.6220181
vt 0.4349127 0.7003181
vt 0.5754114 0.3962051
vt 0.5650873 0.2996818
vt 0.4245887 0.6037948
vt 0.3761966 0.6704007
vt 0.5396461 0.3779818
vt 0.3962052 0.5754113
vt 0.5000001 0.3717024
vt 0.5 0.289373
vt 0.3295993 0.6238034
vt 0.4349127 0.2996818
vt 0.3779819 0.539646
vt 0.2996819 0.5650873
vt 0.460354 0.3779818
vt 0.3761966 0.3295991
vt 0.3717026 0.4999999
vt 0.2893731 0.4999999
vt 0.4245887 0.3962051
vt 0.3295993 0.3761965
vt 0.3779819 0.4603539
vt 0.2996819 0.4349127
vt 0.3962052 0.4245886

vn -0.9474515 0.3038388 -0.1000872
vn -0.9497705 0.3088526 0.05045785
vn -0.8083462 0.5874742 0.03808482
vn -0.8083233 0.5779369 -0.1122598
vn -0.9953916 -9.66701e-07 -0.09589289
vn -0.5880727 0.8085893 0.01881313
vn -0.9985017 -8.519153e-07 0.05472137
vn -0.5916258 0.7954624 -0.1312196
vn -0.9474512 -0.3038399 -0.1000873
vn -0.3105116 0.9505538 -0.005470619
vn -0.9497702 -0.3088534 0.05045789
vn -0.3185699 0.9351226 -0.1551092
vn -0.8083226 -0.5779379 -0.1122599
vn -0.002833345 0.9994714 -0.03238868
vn -0.808346 -0.5874744 0.03808477
vn -0.01588658 0.9832463 -0.1815884
vn -0.5916252 -0.795463 -0.1312184
vn 0.304845 0.9505536 -0.05930683
vn -0.5880727 -0.8085893 0.01881343
vn 0.2867964 0.9351229 -0.2080696
vn -0.3185705 -0.9351228 -0.1551071
vn 0.5824054 0.8085893 -0.08359
vn -0.310512 -0.9505537 -0.005469843
vn 0.5598515 0.7954628 -0.2319593
vn -0.01588688 -0.9832463 -0.1815885
vn 0.8026788 0.5874743 -0.1028613
vn -0.002833724 -0.9994714 -0.03238836
vn 0.7765494 0.5779372 -0.2509177
vn 0.2867965 -0.9351229 -0.2080696
vn 0.9441031 0.3088534 -0.1152346
vn 0.3048447 -0.9505537 -0.05930696
vn 0.9156774 0.3038392 -0.2630905
vn 0.5598518 -0.7954629 -0.2319585
vn 0.9928344 0.0 -0.1194981
vn 0.5824052 -0.8085894 -0.08359011
vn 0.9636176 0.0 -0.2672849
vn 0.7765487 -0.5779381 -0.2509178
vn 0.944103 -0.3088537 -0.1152346
vn 0.8026785 -0.5874751 -0.1028615
vn 0.9156771 -0.30384 -0.2630907
vn -0.09633622 0.5225912 0.8471232
vn -0.03728398 0.3639524 0.930671
vn 0.0805217 0.3826863 0.9203627
vn -0.2489311 0.4445422 0.860474
vn -0.1435549 0.3095955 0.9399695
vn 0.07282011 0.5494847 0.8323243
vn 0.1983266 0.3639564 0.9100562
vn -0.3700299 0.3229787 0.8710698
vn -0.2278932 0.2249374 0.9473479
vn 0.2419718 0.522591 0.8175257
vn 0.3046032 0.3095963 0.9007591
vn -0.4477817 0.1697999 0.8778721
vn -0.282056 0.1182571 0.9520818
vn 0.3945672 0.4445423 0.804176
vn 0.3889333 0.2249318 0.8933849
vn -0.4745726 -4.581113e-07 0.8802164
vn -0.3007191 -1.853669e-07 0.9537128
vn 0.5156689 0.3229787 0.7935807
vn 0.4430713 0.1182536 0.8886529
vn -0.4477814 -0.1698006 0.8778721
vn -0.2820483 -0.1182572 0.9520841
vn 0.5934213 0.1698003 0.7867776
vn 0.4617377 -1.729152e-06 0.8870166
vn -0.370032 -0.3229792 0.8710687
vn -0.2278961 -0.2249372 0.9473471
vn 0.6202138 -6.921106e-07 0.7844328
vn 0.443085 -0.1182554 0.8886458
vn -0.2489332 -0.4445429 0.860473
vn -0.143561 -0.309598 0.9399677
vn 0.5934212 -0.1698002 0.7867777
vn 0.3889406 -0.2249331 0.8933815
vn -0.09633635 -0.5225915 0.847123
vn -0.03728549 -0.3639552 0.9306699
vn 0.5156708 -0.3229792 0.7935793
vn 0.3046045 -0.309597 0.9007585
vn 0.07281904 -0.5494851 0.8323242
vn 0.08052213 -0.3826876 0.9203621
vn 0.3945697 -0.444543 0.8041742
vn 0.1983282 -0.3639572 0.9100555
vn 0.2419722 -0.5225915 0.8175253
vn 0.7623029 -1.888293e-07 0.6472204
vn 0.7280268 -0.2172372 0.6502192
vn 0.6285542 -0.4132091 0.6589218
vn 0.4736218 -0.5687333 0.6724766
vn 0.2783947 -0.6685863 0.6895571
vn 0.06198487 -0.7029931 0.7084904
vn 0.7280265 0.2172371 0.6502196
vn -0.1544257 -0.6685858 0.727424
vn 0.6285535 0.4132093 0.6589223
vn -0.3496525 -0.568733 0.7445038
vn 0.473621 0.5687337 0.6724768
vn -0.5045838 -0.413209 0.758059
vn 0.2783945 0.6685863 0.689557
vn -0.604057 -0.217237 0.7667615
vn 0.06198522 0.7029929 0.7084906
vn -0.6383331 -8.07449e-07 0.7697602
vn -0.1544247 0.6685866 0.7274235
vn -0.604057 0.2172361 0.7667617
vn -0.349652 0.5687335 0.7445037
vn -0.5045842 0.4132087 0.758059
vn 0.04377937 0.864687 0.5003995
vn -0.2224066 0.8223666 0.5236875
vn -0.4625371 0.6995468 0.544696
vn -0.6531056 0.5082502 0.5613686
vn -0.7754583 0.267202 0.572073
vn -0.8176178 -9.233191e-07 0.5757613
vn 0.3099653 0.8223664 0.4771111
vn -0.7754579 -0.2672031 0.572073
vn 0.5500957 0.6995467 0.456102
vn -0.6531051 -0.5082507 0.5613688
vn 0.7406641 0.5082501 0.4394297
vn -0.4625373 -0.6995466 0.5446959
vn 0.8630164 0.267203 0.4287252
vn -0.2224074 -0.8223664 0.5236872
vn 0.9051761 0.0 0.4250368
vn 0.04377908 -0.8646873 0.5003991
vn 0.8630165 -0.267203 0.428725
vn 0.3099654 -0.8223664 0.477111
vn 0.7406642 -0.5082503 0.4394293
vn 0.550096 -0.6995464 0.4561022
vn 0.942886 0.3011646 0.1423585
vn 0.9904041 0.0 0.1382012
vn 0.9428859 -0.3011647 0.1423586
vn 0.8049823 -0.5728499 0.1544231
vn 0.5901924 -0.7884603 0.1732147
vn 0.3195415 -0.9268907 0.1968934
vn 0.8049826 0.5728493 0.1544233
vn 0.01952213 -0.9745905 0.2231418
vn 0.5901924 0.7884601 0.1732153
vn -0.280497 -0.9268904 0.2493901
vn 0.3195417 0.9268904 0.1968937
vn -0.5511478 -0.7884603 0.2730688
vn 0.0195226 0.9745905 0.2231419
vn -0.7659376 -0.5728498 0.2918608
vn -0.2804965 0.9268906 0.2493906
vn -0.9038412 -0.3011648 0.3039257
vn -0.5511474 0.7884604 0.2730693
vn -0.9513595 -8.617653e-07 0.308083
vn -0.7659374 0.5728499 0.291861
vn -0.9038415 0.3011641 0.3039257
vn -0.3105116 0.9505538 -0.005470619
vn -0.5880727 0.8085893 0.01881313
vn -0.002833345 0.9994714 -0.03238868
vn -0.8083462 0.5874742 0.03808482
vn -0.9497705 0.3088526 0.05045785
vn 0.304845 0.9505536 -0.05930683
vn -0.9985017 -8.519153e-07 0.05472137
vn -0.9497702 -0.3088534 0.05045789
vn 0.5824054 0.8085893 -0.08359
vn -0.808346 -0.5874744 0.03808477
vn 0.8026788 0.5874743 -0.1028613
vn -0.5880727 -0.8085893 0.01881343
vn 0.9441031 0.3088534 -0.1152346
vn -0.310512 -0.9505537 -0.005469843
vn 0.9928344 0.0 -0.1194981
vn -0.002833724 -0.9994714 -0.03238836
vn 0.944103 -0.3088537 -0.1152346
vn 0.3048447 -0.9505537 -0.05930696
vn 0.8026785 -0.5874751 -0.1028615
vn 0.5824052 -0.8085894 -0.08359011
vn -0.9156777 0.3038385 -0.2630901
vn -0.9441035 0.3088521 -0.1152344
vn -0.8026791 0.5874742 -0.1028612
vn -0.776549 0.5779372 -0.2509184
vn -0.9636178 -7.341102e-07 -0.2672842
vn -0.5824054 0.8085894 -0.08358981
vn -0.9928344 -6.034404e-07 -0.1194981
vn -0.5598511 0.795463 -0.2319602
vn -0.9156774 -0.3038395 -0.26309
vn -0.3048447 0.9505537 -0.05930675
vn -0.9441032 -0.3088531 -0.1152345
vn -0.2867964 0.9351228 -0.2080702
vn -0.7765495 -0.5779371 -0.2509176
vn 0.002833622 0.9994714 -0.03238814
vn -0.8026789 -0.5874743 -0.1028612
vn 0.01588688 0.9832464 -0.1815879
vn -0.5598515 -0.7954629 -0.2319593
vn 0.3105117 0.9505538 -0.005469738
vn -0.5824054 -0.8085892 -0.08358981
vn 0.3185703 0.9351228 -0.1551072
vn -0.2867962 -0.9351228 -0.2080706
vn 0.5880727 0.8085892 0.01881372
vn -0.3048447 -0.9505537 -0.05930678
vn 0.5916253 0.795463 -0.1312186
vn 0.01588696 -0.9832461 -0.1815889
vn 0.8083462 0.5874742 0.03808523
vn 0.002833592 -0.9994714 -0.03238834
vn 0.8083231 0.5779374 -0.1122596
vn 0.3185705 -0.9351227 -0.1551075
vn 0.9497703 0.3088532 0.05045805
vn 0.3105119 -0.9505537 -0.00546997
vn 0.9474513 0.3038397 -0.1000874
vn 0.591626 -0.7954624 -0.1312183
vn 0.9985017 0.0 0.05472142
vn 0.5880728 -0.8085892 0.01881341
vn 0.9953916 0.0 -0.09589317
vn 0.8083231 -0.5779372 -0.1122594
vn 0.9497702 -0.3088534 0.05045792
vn 0.8083462 -0.5874744 0.03808482
vn 0.9474513 -0.3038394 -0.1000874
vn -0.2419719 0.5225909 0.8175257
vn -0.1983286 0.3639581 0.9100552
vn -0.08052199 0.3826885 0.9203618
vn -0.3945678 0.4445429 0.8041753
vn -0.304606 0.3095967 0.9007581
vn -0.07281902 0.5494849 0.8323242
vn 0.03728542 0.3639543 0.9306702
vn -0.5156704 0.3229788 0.7935797
vn -0.3889452 0.2249316 0.8933797
vn 0.09633746 0.5225909 0.8471233
vn 0.1435606 0.3095967 0.9399682
vn -0.5934216 0.1697991 0.7867776
vn -0.4430871 0.1182549 0.8886448
vn 0.2489327 0.4445419 0.8604738
vn 0.2278973 0.2249375 0.9473468
vn -0.6202133 -6.051283e-07 0.7844332
vn -0.461744 -3.214983e-07 0.8870133
vn 0.3700312 0.3229792 0.871069
vn 0.2820499 0.118257 0.9520835
vn -0.5934229 -0.1698003 0.7867764
vn -0.4430886 -0.1182553 0.888644
vn 0.4477811 0.1698006 0.8778723
vn 0.3007149 0.0 0.9537141
vn -0.5156725 -0.3229785 0.7935784
vn -0.3889429 -0.2249317 0.8933808
vn 0.4745723 0.0 0.8802165
vn 0.2820513 -0.118257 0.9520831
vn -0.3945702 -0.4445428 0.8041742
vn -0.3046066 -0.309597 0.9007577
vn 0.4477818 -0.1698006 0.877872
vn 0.2278983 -0.2249369 0.9473467
vn -0.2419736 -0.5225914 0.8175249
vn -0.1983313 -0.3639588 0.9100543
vn 0.3700314 -0.3229795 0.8710688
vn 0.1435591 -0.3095964 0.9399686
vn -0.07282007 -0.5494848 0.8323242
vn -0.08052083 -0.3826877 0.9203622
vn 0.2489315 -0.4445429 0.8604736
vn 0.0372854 -0.3639537 0.9306705
vn 0.09633524 -0.5225914 0.8471232
vn 0.6383329 0.0 0.7697604
vn 0.604057 -0.2172367 0.7667617
vn 0.5045837 -0.4132089 0.7580591
vn 0.3496523 -0.5687333 0.7445037
vn 0.1544258 -0.6685863 0.7274236
vn -0.06198527 -0.7029933 0.7084902
vn 0.6040572 0.2172368 0.7667614
vn -0.278395 -0.6685863 0.6895568
vn 0.5045848 0.4132084 0.7580587
vn -0.4736223 -0.5687331 0.6724765
vn 0.349653 0.5687328 0.7445037
vn -0.6285545 -0.4132088 0.6589217
vn 0.1544261 0.668586 0.7274238
vn -0.7280269 -0.2172372 0.6502191
vn -0.06198486 0.7029933 0.7084903
vn -0.7623028 -1.226812e-06 0.6472207
vn -0.2783942 0.6685864 0.6895571
vn -0.7280269 0.2172359 0.6502194
vn -0.473621 0.5687339 0.6724768
vn -0.6285539 0.4132093 0.6589218
vn -0.04377943 0.8646873 0.5003991
vn -0.309965 0.8223668 0.4771107
vn -0.5500959 0.6995465 0.4561021
vn -0.740664 0.5082505 0.4394296
vn -0.8630167 0.2672025 0.4287249
vn -0.9051762 -9.666525e-07 0.4250366
vn 0.2224072 0.8223664 0.5236876
vn -0.8630165 -0.267203 0.4287252
vn 0.4625377 0.6995463 0.5446961
vn -0.7406641 -0.5082501 0.4394297
vn 0.6531057 0.50825 0.5613685
vn -0.5500959 -0.6995465 0.4561022
vn 0.775458 0.2672029 0.5720729
vn -0.3099654 -0.8223668 0.4771105
vn 0.8176177 0.0 0.5757616
vn -0.0437796 -0.8646874 0.5003989
vn 0.7754579 -0.2672028 0.5720732
vn 0.2224073 -0.8223664 0.5236874
vn 0.6531052 -0.5082506 0.5613688
vn 0.4625373 -0.6995467 0.544696
vn 0.9038411 0.3011649 0.3039259
vn 0.9513595 0.0 0.3080832
vn 0.9038412 -0.301165 0.3039257
vn 0.7659374 -0.57285 0.2918606
vn 0.5511474 -0.7884604 0.2730689
vn 0.2804964 -0.9268906 0.2493905
vn 0.7659374 0.5728497 0.2918613
vn -0.01952271 -0.9745905 0.223142
vn 0.5511478 0.78846 0.2730694
vn -0.3195415 -0.9268906 0.1968937
vn 0.2804965 0.9268904 0.2493907
vn -0.5901923 -0.7884601 0.1732153
vn -0.0195225 0.9745905 0.2231419
vn -0.8049825 -0.5728495 0.1544234
vn -0.3195412 0.9268907 0.1968937
vn -0.942886 -0.3011644 0.1423583
vn -0.5901926 0.78846 0.1732156
vn -0.9904042 -5.44118e-07 0.1382008
vn -0.8049826 0.5728493 0.1544236
vn -0.9428862 0.3011636 0.1423584
vn -0.3048447 0.9505537 -0.05930675
vn -0.5824054 0.8085894 -0.08358981
vn 0.002833622 0.9994714 -0.03238814
vn -0.8026791 0.5874742 -0.1028612
vn -0.9441035 0.3088521 -0.1152344
vn 0.3105117 0.9505538 -0.005469738
vn -0.9928344 -6.034404e-07 -0.1194981
vn -0.9441032 -0.3088531 -0.1152345
vn 0.5880727 0.8085892 0.01881372
vn -0.8026789 -0.5874743 -0.1028612
vn 0.8083462 0.5874742 0.03808523
vn -0.5824054 -0.8085892 -0.08358981
vn 0.9497703 0.3088532 0.05045805
vn -0.3048447 -0.9505537 -0.05930678
vn 0.9985017 0.0 0.05472142
vn 0.002833592 -0.9994714 -0.03238834
vn 0.9497702 -0.3088534 0.05045792
vn 0.3105119 -0.9505537 -0.00546997
vn 0.8083462 -0.5874744 0.03808482
vn 0.5880728 -0.8085892 0.01881341
vn 0.202752 -0.08497007 0.9755366
vn 0.23476 -0.1087453 0.9659514
vn 0.2609345 -0.05717198 0.9636621
vn 0.2232027 -0.04467322 0.9737478
vn 0.2699569 3.778183e-07 0.9628724
vn 0.1708922 -0.1169523 0.978324
vn 0.1939866 -0.1496768 0.9695184
vn 0.2302514 2.726348e-07 0.9731312
vn 0.2609386 0.05717215 0.963661
vn 0.08715595 2.284439e-07 0.9961947
vn 0.1307406 -0.1374889 0.9818369
vn 0.223205 0.04467345 0.9737473
vn 0.1426056 -0.1759586 0.9740134
vn 0.23476 0.1087457 0.9659514
vn 0.08624114 -0.1445644 0.9857301
vn 0.08565244 -0.1850135 0.9789963
vn 0.2027497 0.08497161 0.9755369
vn 0.193985 0.1496758 0.9695189
vn 0.04173954 -0.1374873 0.9896237
vn 0.02869617 -0.175957 0.9839795
vn 0.1708911 0.1169523 0.9783242
vn 0.1426071 0.1759569 0.9740136
vn 0.001590536 -0.1169545 0.993136
vn -0.02268319 -0.1496778 0.9884747
vn 0.1307433 0.1374873 0.9818367
vn -0.03026636 -0.08497253 0.9959235
vn 0.08623902 0.1445634 0.9857303
vn 0.08564942 0.1850123 0.9789968
vn -0.0634536 -0.1087472 0.9920421
vn 0.02869918 0.175957 0.9839793
vn -0.05072142 -0.04467069 0.9977133
vn -0.08963086 -0.05717009 0.9943329
vn 0.04174151 0.1374885 0.9896234
vn -0.02267867 0.149679 0.9884745
vn -0.05777099 0.0 0.9983298
vn -0.09865249 0.0 0.9951219
vn 0.001593705 0.1169554 0.9931359
vn -0.06345661 0.108747 0.992042
vn -0.05072362 0.04467069 0.9977132
vn -0.08963156 0.05717001 0.9943328
vn -0.03027013 0.08497148 0.9959235
vn 0.03027011 -0.08497136 0.9959235
vn 0.06345659 -0.1087467 0.992042
vn 0.08963231 -0.0571701 0.9943328
vn 0.05072417 -0.04467071 0.9977132
vn 0.09865181 0.0 0.995122
vn -0.001589531 -0.1169545 0.993136
vn 0.02268468 -0.1496786 0.9884744
vn 0.05777042 0.0 0.9983299
vn 0.08963167 0.05717029 0.9943328
vn -0.08715574 0.0 0.9961947
vn -0.04174148 -0.1374885 0.9896235
vn 0.05072366 0.04467085 0.9977132
vn -0.02869915 -0.1759579 0.9839792
vn 0.06345747 0.1087469 0.992042
vn -0.0862431 -0.1445642 0.9857299
vn -0.08565536 -0.1850132 0.978996
vn 0.030269 0.08497138 0.9959235
vn 0.02268473 0.1496786 0.9884744
vn -0.1307377 -0.137489 0.9818372
vn -0.1426012 -0.1759586 0.9740141
vn -0.001591254 0.1169544 0.993136
vn -0.02869613 0.175958 0.9839793
vn -0.1708881 -0.1169542 0.9783246
vn -0.1939803 -0.1496784 0.9695194
vn -0.04173946 0.1374885 0.9896235
vn -0.2027506 -0.08497022 0.9755369
vn -0.08624112 0.1445642 0.9857301
vn -0.08565241 0.1850133 0.9789963
vn -0.2347588 -0.108746 0.9659516
vn -0.1426058 0.1759586 0.9740134
vn -0.2232023 -0.04467208 0.973748
vn -0.2609349 -0.05717185 0.963662
vn -0.1307409 0.137489 0.9818369
vn -0.1939834 0.1496784 0.9695189
vn -0.2302508 0.0 0.9731313
vn -0.2699566 0.0 0.9628725
vn -0.1708901 0.1169543 0.9783242
vn -0.2347596 0.108746 0.9659514
vn -0.2232048 0.04467203 0.9737474
vn -0.2609385 0.05717174 0.963661
vn -0.2027509 0.08497021 0.9755368

f 1/1/1 2/2/2 3/3/3
f 1/1/1 3/3/3 4/4/4
f 5/5/5 2/2/2 1/1/1
f 4/4/4 3/3/3 6/6/6
f 5/5/5 7/7/7 2/2/2
f 4/4/4 6/6/6 8/8/8
f 9/9/9 7/7/7 5/5/5
f 8/8/8 6/6/6 10/10/10
f 9/9/9 11/11/11 7/7/7
f 8/8/8 10/10/10 12/12/12
f 13/13/13 11/11/11 9/9/9
f 12/12/12 10/10/10 14/14/14
f 13/13/13 15/15/15 11/11/11
f 12/12/12 14/14/14 16/16/16
f 17/17/17 15/15/15 13/13/13
f 16/16/16 14/14/14 18/18/18
f 17/17/17 19/19/19 15/15/15
f 16/16/16 18/18/18 20/20/20
f 21/21/21 19/19/19 17/17/17
f 20/20/20 18/18/18 22/22/22
f 21/21/21 23/23/23 19/19/19
f 20/20/20 22/22/22 24/24/24
f 25/25/25 23/23/23 21/21/21
f 24/24/24 22/22/22 26/26/26
f 25/25/25 27/27/27 23/23/23
f 24/24/24 26/26/26 28/28/28
f 29/29/29 27/27/27 25/25/25
f 28/28/28 26/26/26 30/30/30
f 29/29/29 31/31/31 27/27/27
f 28/28/28 30/30/30 32/32/32
f 33/33/33 31/31/31 29/29/29
f 32/32/32 30/30/30 34/34/34
f 33/33/33 35/35/35 31/31/31
f 32/32/32 34/34/34 36/36/36
f 37/37/37 35/35/35 33/33/33
f 36/36/36 34/34/34 38/38/38
f 37/37/37 39/39/39 35/35/35
f 36/36/36 38/38/38 40/40/40
f 40/40/40 39/39/39 37/37/37
f 40/40/40 38/38/38 39/39/39
f 41/41/41 42/42/42 43/43/43
f 44/44/44 42/42/42 41/41/41
f 44/44/44 45/45/45 42/42/42
f 41/41/41 43/43/43 46/46/46
f 46/46/46 43/43/43 47/47/47
f 48/48/48 45/45/45 44/44/44
f 48/48/48 49/49/49 45/45/45
f 46/46/46 47/47/47 50/50/50
f 50/50/50 47/47/47 51/51/51
f 52/52/52 49/49/49 48/48/48
f 52/52/52 53/53/53 49/49/49
f 50/50/50 51/51/51 54/54/54
f 54/54/54 51/51/51 55/55/55
f 56/56/56 53/53/53 52/52/52
f 56/56/56 57/57/57 53/53/53
f 54/54/54 55/55/55 58/58/58
f 58/58/58 55/55/55 59/59/59
f 60/60/60 57/57/57 56/56/56
f 60/60/60 61/61/61 57/57/57
f 58/58/58 59/59/59 62/62/62
f 62/62/62 59/59/59 63/63/63
f 64/64/64 61/61/61 60/60/60
f 64/64/64 65/65/65 61/61/61
f 62/62/62 63/63/63 66/66/66
f 66/66/66 63/63/63 67/67/67
f 68/68/68 65/65/65 64/64/64
f 68/68/68 69/69/69 65/65/65
f 66/66/66 67/67/67 70/70/70
f 70/70/70 67/67/67 71/71/71
f 72/72/72 69/69/69 68/68/68
f 72/72/72 73/73/73 69/69/69
f 70/70/70 71/71/71 74/74/74
f 74/74/74 71/71/71 75/75/75
f 76/76/76 73/73/73 72/72/72
f 76/76/76 77/77/77 73/73/73
f 74/74/74 75/75/75 78/78/78
f 78/78/78 75/75/75 79/79/79
f 80/80/80 79/79/79 77/77/77
f 80/80/80 77/77/77 76/76/76
f 78/78/78 79/79/79 80/80/80
f 81/81/81 66/66/66 70/70/70
f 82/82/82 70/70/70 74/74/74
f 81/81/81 70/70/70 82/82/82
f 83/83/83 74/74/74 78/78/78
f 82/82/82 74/74/74 83/83/83
f 84/84/84 78/78/78 80/80/80
f 83/83/83 78/78/78 84/84/84
f 85/85/85 80/80/80 76/76/76
f 84/84/84 80/80/80 85/85/85
f 86/86/86 76/76/76 72/72/72
f 85/85/85 76/76/76 86/86/86
f 87/87/87 66/66/66 81/81/81
f 87/87/87 62/62/62 66/66/66
f 86/86/86 72/72/72 88/88/88
f 88/88/88 72/72/72 68/68/68
f 89/89/89 62/62/62 87/87/87
f 89/89/89 58/58/58 62/62/62
f 88/88/88 68/68/68 90/90/90
f 90/90/90 68/68/68 64/64/64
f 91/91/91 58/58/58 89/89/89
f 91/91/91 54/54/54 58/58/58
f 90/90/90 64/64/64 92/92/92
f 92/92/92 64/64/64 60/60/60
f 93/93/93 54/54/54 91/91/91
f 93/93/93 50/50/50 54/54/54
f 92/92/92 60/60/60 94/94/94
f 94/94/94 60/60/60 56/56/56
f 95/95/95 50/50/50 93/93/93
f 95/95/95 46/46/46 50/50/50
f 94/94/94 56/56/56 96/96/96
f 96/96/96 56/56/56 52/52/52
f 97/97/97 46/46/46 95/95/95
f 97/97/97 41/41/41 46/46/46
f 96/96/96 52/52/52 98/98/98
f 98/98/98 52/52/52 48/48/48
f 99/99/99 41/41/41 97/97/97
f 99/99/99 44/44/44 41/41/41
f 100/100/100 48/48/48 44/44/44
f 98/98/98 48/48/48 100/100/100
f 100/100/100 44/44/44 99/99/99
f 101/101/101 95/95/95 93/93/93
f 102/102/102 97/97/97 95/95/95
f 102/102/102 95/95/95 101/101/101
f 103/103/103 99/99/99 97/97/97
f 103/103/103 97/97/97 102/102/102
f 104/104/104 100/100/100 99/99/99
f 104/104/104 99/99/99 103/103/103
f 105/105/105 98/98/98 100/100/100
f 105/105/105 100/100/100 104/104/104
f 106/106/106 96/96/96 98/98/98
f 106/106/106 98/98/98 105/105/105
f 101/101/101 93/93/93 107/107/107
f 107/107/107 93/93/93 91/91/91
f 108/108/108 96/96/96 106/106/106
f 108/108/108 94/94/94 96/96/96
f 107/107/107 91/91/91 109/109/109
f 109/109/109 91/91/91 89/89/89
f 110/110/110 94/94/94 108/108/108
f 110/110/110 92/92/92 94/94/94
f 109/109/109 89/89/89 111/111/111
f 111/111/111 89/89/89 87/87/87
f 112/112/112 92/92/92 110/110/110
f 112/112/112 90/90/90 92/92/92
f 111/111/111 87/87/87 113/113/113
f 113/113/113 87/87/87 81/81/81
f 114/114/114 90/90/90 112/112/112
f 114/114/114 88/88/88 90/90/90
f 113/113/113 81/81/81 115/115/115
f 115/115/115 81/81/81 82/82/82
f 116/116/116 88/88/88 114/114/114
f 116/116/116 86/86/86 88/88/88
f 115/115/115 82/82/82 117/117/117
f 117/117/117 82/82/82 83/83/83
f 118/118/118 86/86/86 116/116/116
f 118/118/118 85/85/85 86/86/86
f 117/117/117 83/83/83 119/119/119
f 119/119/119 83/83/83 84/84/84
f 120/120/120 84/84/84 85/85/85
f 120/120/120 85/85/85 118/118/118
f 119/119/119 84/84/84 120/120/120
f 121/121/121 113/113/113 115/115/115
f 122/122/122 115/115/115 117/117/117
f 121/121/121 115/115/115 122/122/122
f 123/123/123 117/117/117 119/119/119
f 122/122/122 117/117/117 123/123/123
f 124/124/124 119/119/119 120/120/120
f 123/123/123 119/119/119 124/124/124
f 125/125/125 120/120/120 118/118/118
f 124/124/124 120/120/120 125/125/125
f 126/126/126 118/118/118 116/116/116
f 125/125/125 118/118/118 126/126/126
f 127/127/127 113/113/113 121/121/121
f 127/127/127 111/111/111 113/113/113
f 126/126/126 116/116/116 128/128/128
f 128/128/128 116/116/116 114/114/114
f 129/129/129 111/111/111 127/127/127
f 129/129/129 109/109/109 111/111/111
f 128/128/128 114/114/114 130/130/130
f 130/130/130 114/114/114 112/112/112
f 131/131/131 109/109/109 129/129/129
f 131/131/131 107/107/107 109/109/109
f 130/130/130 112/112/112 132/132/132
f 132/132/132 112/112/112 110/110/110
f 133/133/133 107/107/107 131/131/131
f 133/133/133 101/101/101 107/107/107
f 132/132/132 110/110/110 134/134/134
f 134/134/134 110/110/110 108/108/108
f 135/135/135 101/101/101 133/133/133
f 135/135/135 102/102/102 101/101/101
f 134/134/134 108/108/108 136/136/136
f 136/136/136 108/108/108 106/106/106
f 137/137/137 102/102/102 135/135/135
f 137/137/137 103/103/103 102/102/102
f 136/136/136 106/106/106 138/138/138
f 138/138/138 106/106/106 105/105/105
f 139/139/139 103/103/103 137/137/137
f 139/139/139 104/104/104 103/103/103
f 140/140/140 105/105/105 104/104/104
f 138/138/138 105/105/105 140/140/140
f 140/140/140 104/104/104 139/139/139
f 141/141/141 135/135/135 133/133/133
f 142/142/142 135/135/135 141/141/141
f 142/142/142 137/137/137 135/135/135
f 141/141/141 133/133/133 143/143/143
f 144/144/144 137/137/137 142/142/142
f 144/144/144 139/139/139 137/137/137
f 143/143/143 133/133/133 131/131/131
f 145/145/145 139/139/139 144/144/144
f 145/145/145 140/140/140 139/139/139
f 143/143/143 131/131/131 146/146/146
f 147/147/147 140/140/140 145/145/145
f 147/147/147 138/138/138 140/140/140
f 146/146/146 131/131/131 129/129/129
f 148/148/148 138/138/138 147/147/147
f 146/146/146 129/129/129 149/149/149
f 148/148/148 136/136/136 138/138/138
f 149/149/149 129/129/129 127/127/127
f 150/150/150 136/136/136 148/148/148
f 149/149/149 127/127/127 151/151/151
f 150/150/150 134/134/134 136/136/136
f 151/151/151 127/127/127 121/121/121
f 152/152/152 134/134/134 150/150/150
f 151/151/151 121/121/121 153/153/153
f 152/152/152 132/132/132 134/134/134
f 153/153/153 121/121/121 122/122/122
f 154/154/154 132/132/132 152/152/152
f 153/153/153 122/122/122 155/155/155
f 154/154/154 130/130/130 132/132/132
f 155/155/155 122/122/122 123/123/123
f 156/156/156 130/130/130 154/154/154
f 155/155/155 123/123/123 157/157/157
f 156/156/156 128/128/128 130/130/130
f 157/157/157 123/123/123 124/124/124
f 158/158/158 128/128/128 156/156/156
f 157/157/157 124/124/124 159/159/159
f 158/158/158 126/126/126 128/128/128
f 159/159/159 124/124/124 125/125/125
f 160/160/160 126/126/126 158/158/158
f 159/159/159 125/125/125 160/160/160
f 160/160/160 125/125/125 126/126/126
f 161/161/161 162/162/162 163/163/163
f 161/161/161 163/163/163 164/164/164
f 165/165/165 162/162/162 161/161/161
f 164/164/164 163/163/163 166/166/166
f 165/165/165 167/167/167 162/162/162
f 164/164/164 166/166/166 168/168/168
f 169/169/169 167/167/167 165/165/165
f 168/168/168 166/166/166 170/170/170
f 169/169/169 171/171/171 167/167/167
f 168/168/168 170/170/170 172/172/172
f 173/173/173 171/171/171 169/169/169
f 172/172/172 170/170/170 174/174/174
f 173/173/173 175/175/175 171/171/171
f 172/172/172 174/174/174 176/176/176
f 177/177/177 175/175/175 173/173/173
f 176/176/176 174/174/174 178/178/178
f 177/177/177 179/179/179 175/175/175
f 176/176/176 178/178/178 180/180/180
f 181/181/181 179/179/179 177/177/177
f 180/180/180 178/178/178 182/182/182
f 181/181/181 183/183/183 179/179/179
f 180/180/180 182/182/182 184/184/184
f 185/185/185 183/183/183 181/181/181
f 184/184/184 182/182/182 186/186/186
f 185/185/185 187/187/187 183/183/183
f 184/184/184 186/186/186 188/188/188
f 189/189/189 187/187/187 185/185/185
f 188/188/188 186/186/186 190/190/190
f 189/189/189 191/191/191 187/187/187
f 188/188/188 190/190/190 192/192/192
f 193/193/193 191/191/191 189/189/189
f 192/192/192 190/190/190 194/194/194
f 193/193/193 195/195/195 191/191/191
f 192/192/192 194/194/194 196/196/196
f 197/197/197 195/195/195 193/193/193
f 196/196/196 194/194/194 198/198/198
f 197/197/197 199/199/199 195/195/195
f 196/196/196 198/198/198 200/200/200
f 200/200/200 199/199/199 197/197/197
f 200/200/200 198/198/198 199/199/199
f 201/201/201 202/202/202 203/203/203
f 204/204/204 202/202/202 201/201/201
f 204/204/204 205/205/205 202/202/202
f 201/201/201 203/203/203 206/206/206
f 206/206/206 203/203/203 207/207/207
f 208/208/208 205/205/205 204/204/204
f 208/208/208 209/209/209 205/205/205
f 206/206/206 207/207/207 210/210/210
f 210/210/210 207/207/207 211/211/211
f 212/212/212 209/209/209 208/208/208
f 212/212/212 213/213/213 209/209/209
f 210/210/210 211/211/211 214/214/214
f 214/214/214 211/211/211 215/215/215
f 216/216/216 213/213/213 212/212/212
f 216/216/216 217/217/217 213/213/213
f 214/214/214 215/215/215 218/218/218
f 218/218/218 215/215/215 219/219/219
f 220/220/220 217/217/217 216/216/216
f 220/220/220 221/221/221 217/217/217
f 218/218/218 219/219/219 222/222/222
f 222/222/222 219/219/219 223/223/223
f 224/224/224 221/221/221 220/220/220
f 224/224/224 225/225/225 221/221/221
f 222/222/222 223/223/223 226/226/226
f 226/226/226 223/223/223 227/227/227
f 228/228/228 225/225/225 224/224/224
f 228/228/228 229/229/229 225/225/225
f 226/226/226 227/227/227 230/230/230
f 230/230/230 227/227/227 231/231/231
f 232/232/232 229/229/229 228/228/228
f 232/232/232 233/233/233 229/229/229
f 230/230/230 231/231/231 234/234/234
f 234/234/234 231/231/231 235/235/235
f 236/236/236 233/233/233 232/232/232
f 236/236/236 237/237/237 233/233/233
f 234/234/234 235/235/235 238/238/238
f 238/238/238 235/235/235 239/239/239
f 240/240/240 239/239/239 237/237/237
f 240/240/240 237/237/237 236/236/236
f 238/238/238 239/239/239 240/240/240
f 241/241/241 226/226/226 230/230/230
f 242/242/242 230/230/230 234/234/234
f 241/241/241 230/230/230 242/242/242
f 243/243/243 234/234/234 238/238/238
f 242/242/242 234/234/234 243/243/243
f 244/244/244 238/238/238 240/240/240
f 243/243/243 238/238/238 244/244/244
f 245/245/245 240/240/240 236/236/236
f 244/244/244 240/240/240 245/245/245
f 246/246/246 236/236/236 232/232/232
f 245/245/245 236/236/236 246/246/246
f 247/247/247 226/226/226 241/241/241
f 247/247/247 222/222/222 226/226/226
f 246/246/246 232/232/232 248/248/248
f 248/248/248 232/232/232 228/228/228
f 249/249/249 222/222/222 247/247/247
f 249/249/249 218/218/218 222/222/222
f 248/248/248 228/228/228 250/250/250
f 250/250/250 228/228/228 224/224/224
f 251/251/251 218/218/218 249/249/249
f 251/251/251 214/214/214 218/218/218
f 250/250/250 224/224/224 252/252/252
f 252/252/252 224/224/224 220/220/220
f 253/253/253 214/214/214 251/251/251
f 253/253/253 210/210/210 214/214/214
f 252/252/252 220/220/220 254/254/254
f 254/254/254 220/220/220 216/216/216
f 255/255/255 210/210/210 253/253/253
f 255/255/255 206/206/206 210/210/210
f 254/254/254 216/216/216 256/256/256
f 256/256/256 216/216/216 212/212/212
f 257/257/257 206/206/206 255/255/255
f 257/257/257 201/201/201 206/206/206
f 256/256/256 212/212/212 258/258/258
f 258/258/258 212/212/212 208/208/208
f 259/259/259 201/201/201 257/257/257
f 259/259/259 204/204/204 201/201/201
f 260/260/260 208/208/208 204/204/204
f 258/258/258 208/208/208 260/260/260
f 260/260/260 204/204/204 259/259/259
f 261/261/261 255/255/255 253/253/253
f 262/262/262 257/257/257 255/255/255
f 262/262/262 255/255/255 261/261/261
f 263/263/263 259/259/259 257/257/257
f 263/263/263 257/257/257 262/262/262
f 264/264/264 260/260/260 259/259/259
f 264/264/264 259/259/259 263/263/263
f 265/265/265 258/258/258 260/260/260
f 265/265/265 260/260/260 264/264/264
f 266/266/266 256/256/256 258/258/258
f 266/266/266 258/258/258 265/265/265
f 261/261/261 253/253/253 267/267/267
f 267/267/267 253/253/253 251/251/251
f 268/268/268 256/256/256 266/266/266
f 268/268/268 254/254/254 256/256/256
f 267/267/267 251/251/251 269/269/269
f 269/269/269 251/251/251 249/249/249
f 270/270/270 254/254/254 268/268/268
f 270/270/270 252/252/252 254/254/254
f 269/269/269 249/249/249 271/271/271
f 271/271/271 249/249/249 247/247/247
f 272/272/272 252/252/252 270/270/270
f 272/272/272 250/250/250 252/252/252
f 271/271/271 247/247/247 273/273/273
f 273/273/273 247/247/247 241/241/241
f 274/274/274 250/250/250 272/272/272
f 274/274/274 248/248/248 250/250/250
f 273/273/273 241/241/241 275/275/275
f 275/275/275 241/241/241 242/242/242
f 276/276/276 248/248/248 274/274/274
f 276/276/276 246/246/246 248/248/248
f 275/275/275 242/242/242 277/277/277
f 277/277/277 242/242/242 243/243/243
f 278/278/278 246/246/246 276/276/276
f 278/278/278 245/245/245 246/246/246
f 277/277/277 243/243/243 279/279/279
f 279/279/279 243/243/243 244/244/244
f 280/280/280 244/244/244 245/245/245
f 280/280/280 245/245/245 278/278/278
f 279/279/279 244/244/244 280/280/280
f 281/281/281 273/273/273 275/275/275
f 282/282/282 275/275/275 277/277/277
f 281/281/281 275/275/275 282/282/282
f 283/283/283 277/277/277 279/279/279
f 282/282/282 277/277/277 283/283/283
f 284/284/284 279/279/279 280/280/280
f 283/283/283 279/279/279 284/284/284
f 285/285/285 280/280/280 278/278/278
f 284/284/284 280/280/280 285/285/285
f 286/286/286 278/278/278 276/276/276
f 285/285/285 278/278/278 286/286/286
f 287/287/287 273/273/273 281/281/281
f 287/287/287 271/271/271 273/273/273
f 286/286/286 276/276/276 288/288/288
f 288/288/288 276/276/276 274/274/274
f 289/289/289 271/271/271 287/287/287
f 289/289/289 269/269/269 271/271/271
f 288/288/288 274/274/274 290/290/290
f 290/290/290 274/274/274 272/272/272
f 291/291/291 269/269/269 289/289/289
f 291/291/291 267/267/267 269/269/269
f 290/290/290 272/272/272 292/292/292
f 292/292/292 272/272/272 270/270/270
f 293/293/293 267/267/267 291/291/291
f 293/293/293 261/261/261 267/267/267
f 292/292/292 270/270/270 294/294/294
f 294/294/294 270/270/270 268/268/268
f 295/295/295 261/261/261 293/293/293
f 295/295/295 262/262/262 261/261/261
f 294/294/294 268/268/268 296/296/296
f 296/296/296 268/268/268 266/266/266
f 297/297/297 262/262/262 295/295/295
f 297/297/297 263/263/263 262/262/262
f 296/296/296 266/266/266 298/298/298
f 298/298/298 266/266/266 265/265/265
f 299/299/299 263/263/263 297/297/297
f 299/299/299 264/264/264 263/263/263
f 300/300/300 265/265/265 264/264/264
f 298/298/298 265/265/265 300/300/300
f 300/300/300 264/264/264 299/299/299
f 301/301/301 295/295/295 293/293/293
f 302/302/302 295/295/295 301/301/301
f 302/302/302 297/297/297 295/295/295
f 301/301/301 293/293/293 303/303/303
f 304/304/304 297/297/297 302/302/302
f 304/304/304 299/299/299 297/297/297
f 303/303/303 293/293/293 291/291/291
f 305/305/305 299/299/299 304/304/304
f 305/305/305 300/300/300 299/299/299
f 303/303/303 291/291/291 306/306/306
f 307/307/307 300/300/300 305/305/305
f 307/307/307 298/298/298 300/300/300
f 306/306/306 291/291/291 289/289/289
f 308/308/308 298/298/298 307/307/307
f 306/306/306 289/289/289 309/309/309
f 308/308/308 296/296/296 298/298/298
f 309/309/309 289/289/289 287/287/287
f 310/310/310 296/296/296 308/308/308
f 309/309/309 287/287/287 311/311/311
f 310/310/310 294/294/294 296/296/296
f 311/311/311 287/287/287 281/281/281
f 312/312/312 294/294/294 310/310/310
f 311/311/311 281/281/281 313/313/313
f 312/312/312 292/292/292 294/294/294
f 313/313/313 281/281/281 282/282/282
f 314/314/314 292/292/292 312/312/312
f 313/313/313 282/282/282 315/315/315
f 314/314/314 290/290/290 292/292/292
f 315/315/315 282/282/282 283/283/283
f 316/316/316 290/290/290 314/314/314
f 315/315/315 283/283/283 317/317/317
f 316/316/316 288/288/288 290/290/290
f 317/317/317 283/283/283 284/284/284
f 318/318/318 288/288/288 316/316/316
f 317/317/317 284/284/284 319/319/319
f 318/318/318 286/286/286 288/288/288
f 319/319/319 284/284/284 285/285/285
f 320/320/320 286/286/286 318/318/318
f 319/319/319 285/285/285 320/320/320
f 320/320/320 285/285/285 286/286/286
f 321/321/321 322/322/322 323/323/323
f 321/321/321 323/323/323 324/324/324
f 324/324/324 323/323/323 325/325/325
f 326/326/326 322/322/322 321/321/321
f 326/326/326 327/327/327 322/322/322
f 324/324/324 325/325/325 328/328/328
f 328/328/328 325/325/325 329/329/329
f 324/324/324 330/330/330 321/321/321
f 321/321/321 330/330/330 326/326/326
f 328/328/328 330/330/330 324/324/324
f 326/326/326 330/330/330 331/331/331
f 331/331/331 327/327/327 326/326/326
f 332/332/332 330/330/330 328/328/328
f 328/328/328 329/329/329 332/332/332
f 331/331/331 333/333/333 327/327/327
f 332/332/332 329/329/329 334/334/334
f 335/335/335 333/333/333 331/331/331
f 331/331/331 330/330/330 335/335/335
f 335/335/335 336/336/336 333/333/333
f 332/332/332 334/334/334 337/337/337
f 337/337/337 330/330/330 332/332/332
f 337/337/337 334/334/334 338/338/338
f 339/339/339 336/336/336 335/335/335
f 335/335/335 330/330/330 339/339/339
f 339/339/339 340/340/340 336/336/336
f 337/337/337 338/338/338 341/341/341
f 341/341/341 330/330/330 337/337/337
f 341/341/341 338/338/338 342/342/342
f 343/343/343 340/340/340 339/339/339
f 339/339/339 330/330/330 343/343/343
f 343/343/343 344/344/344 340/340/340
f 341/341/341 342/342/342 345/345/345
f 345/345/345 330/330/330 341/341/341
f 343/343/343 330/330/330 346/346/346
f 346/346/346 344/344/344 343/343/343
f 347/347/347 330/330/330 345/345/345
f 345/345/345 342/342/342 348/348/348
f 345/345/345 348/348/348 347/347/347
f 346/346/346 349/349/349 344/344/344
f 347/347/347 348/348/348 350/350/350
f 351/351/351 349/349/349 346/346/346
f 346/346/346 330/330/330 351/351/351
f 351/351/351 352/352/352 349/349/349
f 347/347/347 350/350/350 353/353/353
f 353/353/353 330/330/330 347/347/347
f 353/353/353 350/350/350 354/354/354
f 355/355/355 352/352/352 351/351/351
f 351/351/351 330/330/330 355/355/355
f 355/355/355 356/356/356 352/352/352
f 353/353/353 354/354/354 357/357/357
f 357/357/357 330/330/330 353/353/353
f 357/357/357 354/354/354 358/358/358
f 359/359/359 356/356/356 355/355/355
f 355/355/355 330/330/330 359/359/359
f 359/359/359 360/360/360 356/356/356
f 357/357/357 358/358/358 361/361/361
f 361/361/361 330/330/330 357/357/357
f 359/359/359 330/330/330 361/361/361
f 361/361/361 358/358/358 360/360/360
f 361/361/361 360/360/360 359/359/359
f 362/362/362 363/363/363 364/364/364
f 362/362/362 364/364/364 365/365/365
f 365/365/365 364/364/364 366/366/366
f 367/367/367 363/363/363 362/362/362
f 367/367/367 368/368/368 363/363/363
f 365/365/365 366/366/366 369/369/369
f 369/369/369 366/366/366 370/370/370
f 365/365/365 371/371/371 362/362/362
f 362/362/362 371/371/371 367/367/367
f 369/369/369 371/371/371 365/365/365
f 367/367/367 371/371/371 372/372/372
f 372/372/372 368/368/368 367/367/367
f 373/373/373 371/371/371 369/369/369
f 369/369/369 370/370/370 373/373/373
f 372/372/372 374/374/374 368/368/368
f 373/373/373 370/370/370 375/375/375
f 376/376/376 374/374/374 372/372/372
f 372/372/372 371/371/371 376/376/376
f 376/376/376 377/377/377 374/374/374
f 373/373/373 375/375/375 378/378/378
f 378/378/378 371/371/371 373/373/373
f 378/378/378 375/375/375 379/379/379
f 380/380/380 377/377/377 376/376/376
f 376/376/376 371/371/371 380/380/380
f 380/380/380 381/381/381 377/377/377
f 378/378/378 379/379/379 382/382/382
f 382/382/382 371/371/371 378/378/378
f 382/382/382 379/379/379 383/383/383
f 384/384/384 381/381/381 380/380/380
f 380/380/380 371/371/371 384/384/384
f 384/384/384 385/385/385 381/381/381
f 382/382/382 383/383/383 386/386/386
f 386/386/386 371/371/371 382/382/382
f 384/384/384 371/371/371 387/387/387
f 387/387/387 385/385/385 384/384/384
f 388/388/388 371/371/371 386/386/386
f 386/386/386 383/383/383 389/389/389
f 386/386/386 389/389/389 388/388/388
f 387/387/387 390/390/390 385/385/385
f 388/388/388 389/389/389 391/391/391
f 392/392/392 390/390/390 387/387/387
f 387/387/387 371/371/371 392/392/392
f 392/392/392 393/393/393 390/390/390
f 388/388/388 391/391/391 394/394/394
f 394/394/394 371/371/371 388/388/388
f 394/394/394 391/391/391 395/395/395
f 396/396/396 393/393/393 392/392/392
f 392/392/392 371/371/371 396/396/396
f 396/396/396 397/397/397 393/393/393
f 394/394/394 395/395/395 398/398/398
f 398/398/398 371/371/371 394/394/394
f 398/398/398 395/395/395 399/399/399
f 400/400/400 397/397/397 396/396/396
f 396/396/396 371/371/371 400/400/400
f 400/400/400 401/401/401 397/397/397
f 398/398/398 399/399/399 402/402/402
f 402/402/402 371/371/371 398/398/398
f 400/400/400 371/371/371 402/402/402
f 402/402/402 399/399/399 401/401/401
f 402/402/402 401/401/401 400/400/400
