v -0.04245307296514511 0.039283037185668945 0.07352152466773987
v -0.0433780737221241 0.03948461636900902 0.07697277516126633
v -0.0412331148982048 0.04370851814746857 0.07716044038534164
v -0.04040045291185379 0.043325088918209076 0.07370110601186752
v -0.043160341680049896 0.0348023995757103 0.07345964759588242
v -0.037892263382673264 0.04706061631441116 0.07745271921157837
v -0.04411716386675835 0.0348023995757103 0.07690810412168503
v -0.03720344230532646 0.04653286933898926 0.07398080825805664
v -0.042453061789274216 0.03032175824046135 0.07352152466773987
v -0.03368254378437996 0.04921279847621918 0.0778210237622261
v -0.043378062546253204 0.030120177194476128 0.07697277516126633
v -0.03317496180534363 0.048592399805784225 0.07433325797319412
v -0.04040045291185379 0.026279708370566368 0.07370110601186752
v -0.029016032814979553 0.04995439946651459 0.07822930067777634
v -0.04123310372233391 0.025896277278661728 0.07716044038534164
v -0.028709353879094124 0.049302056431770325 0.07472394406795502
v -0.037203434854745865 0.023071927949786186 0.07398080825805664
v -0.024349523708224297 0.04921279847621918 0.07863755524158478
v -0.03789225220680237 0.022544177249073982 0.07745271921157837
v -0.024243753403425217 0.048592399805784225 0.07511463761329651
v -0.03317495435476303 0.021012408658862114 0.07433325797319412
v -0.020139804109930992 0.04706061631441116 0.07900585979223251
v -0.033682532608509064 0.020391998812556267 0.0778210237622261
v -0.020215272903442383 0.04653286933898926 0.0754670798778534
v -0.028709353879094124 0.02030273713171482 0.07472394406795502
v -0.016798952594399452 0.04370850697159767 0.07929816097021103
v -0.029016032814979553 0.019650407135486603 0.07822930067777634
v -0.017018252983689308 0.043325088918209076 0.07574677467346191
v -0.024243753403425217 0.021012408658862114 0.07511463761329651
v -0.014653992839157581 0.03948461636900902 0.07948580384254456
v -0.024349523708224297 0.020391998812556267 0.07863755524158478
v -0.014965643174946308 0.039283037185668945 0.07592637091875076
v -0.020215272903442383 0.023071927949786186 0.0754670798778534
v -0.013914893381297588 0.0348023995757103 0.07955046743154526
v -0.020139804109930992 0.022544177249073982 0.07900585979223251
v -0.014258363284170628 0.0348023995757103 0.07598824799060822
v -0.017018252983689308 0.026279708370566368 0.07574677467346191
v -0.014653992839157581 0.030120177194476128 0.07948580384254456
v -0.016798952594399452 0.025896277278661728 0.07929816097021103
v -0.014965643174946308 0.03032175824046135 0.07592637091875076
v 0.015011576935648918 0.03978747874498367 0.0762147530913353
v 0.014699926599860191 0.03998906910419464 0.07977419346570969
v 0.016844887286424637 0.044212959706783295 0.07958654314279556
v 0.017064187675714493 0.043829530477523804 0.07603516429662704
v 0.014304307289421558 0.035306837409734726 0.07627663761377335
v 0.020185746252536774 0.04756505787372589 0.07929424941539764
v 0.01396083738654852 0.035306837409734726 0.07983885705471039
v 0.020261207595467567 0.04703731834888458 0.07575546950101852
v 0.015011587180197239 0.030826197937130928 0.0762147530913353
v 0.024395467713475227 0.0497172474861145 0.0789259597659111
v 0.014699936844408512 0.030624618753790855 0.07977419346570969
v 0.024289686232805252 0.049096837639808655 0.07540302723646164
v 0.01706419698894024 0.026784159243106842 0.07603516429662704
v 0.029061976820230484 0.05045883730053902 0.07851769030094147
v 0.016844896599650383 0.026400728151202202 0.07958654314279556
v 0.028755297884345055 0.04980649799108505 0.07501233369112015
v 0.020261216908693314 0.02357637882232666 0.07575546950101852
v 0.033728476613759995 0.0497172474861145 0.07810941338539124
v 0.020185746252536774 0.023048628121614456 0.07929424941539764
v 0.03322089836001396 0.049096837639808655 0.07462164759635925
v 0.024289697408676147 0.021516848355531693 0.07540302723646164
v 0.0379381962120533 0.04756505787372589 0.0777411088347435
v 0.024395467713475227 0.02089644782245159 0.07892594486474991
v 0.037249378859996796 0.04703731834888458 0.07426919788122177
v 0.028755297884345055 0.020807188004255295 0.07501233369112015
v 0.04127904772758484 0.044212959706783295 0.07744883000850677
v 0.029061976820230484 0.02015484869480133 0.07851769030094147
v 0.04044639691710472 0.043829530477523804 0.07398949563503265
v 0.03322089836001396 0.021516848355531693 0.07462164759635925
v 0.043424006551504135 0.03998906910419464 0.07726116478443146
v 0.033728476613759995 0.02089644782245159 0.07810941338539124
v 0.042499005794525146 0.03978747874498367 0.073809914290905
v 0.037249378859996796 0.02357637882232666 0.07426919788122177
v 0.04416310787200928 0.035306837409734726 0.07719649374485016
v 0.0379381962120533 0.023048628121614456 0.0777411088347435
v 0.04320628568530083 0.035306837409734726 0.07374803721904755
v 0.04044639691710472 0.026784159243106842 0.07398949563503265
v 0.043424006551504135 0.030624618753790855 0.07726116478443146
v 0.04127904772758484 0.026400728151202202 0.07744883000850677
v 0.042499005794525146 0.030826197937130928 0.073809914290905
v -0.0433780737221241 0.03948461636900902 0.07697277516126633
v -0.04343760386109352 0.03936932981014252 0.08172626793384552
v -0.04134546220302582 0.04348921775817871 0.08190930634737015
v -0.0412331148982048 0.04370851814746857 0.07716044038534164
v -0.04411716386675835 0.0348023995757103 0.07690810412168503
v -0.038086872547864914 0.04675878956913948 0.08219438791275024
v -0.037892263382673264 0.04706061631441116 0.07745271921157837
v -0.04415849223732948 0.0348023995757103 0.08166318386793137
v -0.043378062546253204 0.030120177194476128 0.07697277516126633
v -0.033980801701545715 0.04885796830058098 0.08255362510681152
v -0.03368254378437996 0.04921279847621918 0.0778210237622261
v -0.043437592685222626 0.030235467478632927 0.08172626793384552
v -0.04123310372233391 0.025896277278661728 0.07716044038534164
v -0.029429202899336815 0.04958129674196243 0.0829518511891365
v -0.029016032814979553 0.04995439946651459 0.07822930067777634
v -0.041345443576574326 0.026115577667951584 0.08190930634737015
v -0.03789225220680237 0.022544177249073982 0.07745271921157837
v -0.02487759292125702 0.04885796830058098 0.0833500474691391
v -0.024349523708224297 0.04921279847621918 0.07863755524158478
v -0.03808686509728432 0.02284601703286171 0.08219438791275024
v -0.033682532608509064 0.020391998812556267 0.0778210237622261
v -0.020771533250808716 0.046758778393268585 0.08370928466320038
v -0.020139804109930992 0.04706061631441116 0.07900585979223251
v -0.033980801701545715 0.020746827125549316 0.08255362510681152
v -0.029016032814979553 0.019650407135486603 0.07822930067777634
v -0.017512943595647812 0.04348921775817871 0.08399438112974167
v -0.016798952594399452 0.04370850697159767 0.07929816097021103
v -0.029429202899336815 0.020023498684167862 0.0829518511891365
v -0.024349523708224297 0.020391998812556267 0.07863755524158478
v -0.015420802868902683 0.03936932981014252 0.0841774195432663
v -0.014653992839157581 0.03948461636900902 0.07948580384254456
v -0.02487759292125702 0.020746827125549316 0.0833500474691391
v -0.020139804109930992 0.022544177249073982 0.07900585979223251
v -0.014699903316795826 0.0348023995757103 0.08424047380685806
v -0.013914893381297588 0.0348023995757103 0.07955046743154526
v -0.020771533250808716 0.02284601703286171 0.08370928466320038
v -0.016798952594399452 0.025896277278661728 0.07929816097021103
v -0.015420802868902683 0.030235467478632927 0.0841774195432663
v -0.014653992839157581 0.030120177194476128 0.07948580384254456
v -0.017512943595647812 0.026115577667951584 0.08399438112974167
v -0.017528582364320755 0.03880699723958969 0.08840306103229523
v -0.0168964434415102 0.0348023995757103 0.08845836669206619
v -0.017528582364320755 0.030797798186540604 0.08840306103229523
v -0.019363123923540115 0.02718520723283291 0.0882425606250763
v -0.022220473736524582 0.024318227544426918 0.08799256384372711
v -0.025820942595601082 0.022477518767118454 0.08767757564783096
v -0.019363123923540115 0.04241958633065224 0.0882425606250763
v -0.029812103137373924 0.02184324711561203 0.08732839673757553
v -0.022220473736524582 0.045286569744348526 0.08799256384372711
v -0.03380325436592102 0.022477518767118454 0.0869792103767395
v -0.025820942595601082 0.04712727665901184 0.08767757564783096
v -0.03740372508764267 0.024318227544426918 0.08666420727968216
v -0.029812103137373924 0.04776153713464737 0.08732839673757553
v -0.04026108235120773 0.02718520723283291 0.08641422539949417
v -0.03380325436592102 0.04712727665901184 0.0869792103767395
v -0.0420956127345562 0.030797798186540604 0.08625372499227524
v -0.03740373253822327 0.045286569744348526 0.08666420727968216
v -0.042727742344141006 0.0348023995757103 0.08619842678308487
v -0.04026108235120773 0.04241958633065224 0.08641422539949417
v -0.0420956127345562 0.03880699723958969 0.08625372499227524
v -0.03012724407017231 0.04467325657606125 0.09093054383993149
v -0.0331672728061676 0.04419013857841492 0.0906645879149437
v -0.03590972349047661 0.042788099497556686 0.09042464941740036
v -0.038086142390966415 0.040604349225759506 0.09023423492908478
v -0.03948349505662918 0.037852656096220016 0.09011197835206985
v -0.03996497392654419 0.0348023995757103 0.09006986021995544
v -0.027087222784757614 0.04419013857841492 0.09119651466608047
v -0.039483483880758286 0.03175213932991028 0.09011198580265045
v -0.024344773963093758 0.04278808832168579 0.0914364606142044
v -0.038086142390966415 0.029000448063015938 0.09023423492908478
v -0.0221683531999588 0.04060433804988861 0.0916268602013588
v -0.03590972349047661 0.026816707104444504 0.09042464941740036
v -0.02077101357281208 0.037852656096220016 0.09174911677837372
v -0.0331672728061676 0.02541464753448963 0.0906645879149437
v -0.02028951235115528 0.0348023995757103 0.09179123491048813
v -0.03012724407017231 0.024931538850069046 0.09093054383993149
v -0.02077101357281208 0.03175212815403938 0.09174911677837372
v -0.027087222784757614 0.02541464753448963 0.09119651466608047
v -0.0221683531999588 0.029000448063015938 0.0916268602013588
v -0.024344773963093758 0.026816707104444504 0.0914364606142044
v -0.023405663669109344 0.0348023995757103 0.09355320781469345
v -0.02374328300356865 0.03266354650259018 0.09352368116378784
v -0.0247231125831604 0.03073405846953392 0.09343794733285904
v -0.026249222457408905 0.029202818870544434 0.09330442547798157
v -0.028172222897410393 0.028219688683748245 0.09313618391752243
v -0.03030390292406082 0.027880927547812462 0.09294969588518143
v -0.02374328300356865 0.036941248923540115 0.09352368116378784
v -0.032435573637485504 0.028219688683748245 0.09276320040225983
v -0.024723103269934654 0.03887072950601578 0.09343794733285904
v -0.03435858339071274 0.029202818870544434 0.0925949439406395
v -0.02624921314418316 0.04040197655558586 0.09330442547798157
v -0.03588469326496124 0.03073405846953392 0.09246142953634262
v -0.028172222897410393 0.04138510674238205 0.09313618391752243
v -0.0368645116686821 0.03266354650259018 0.09237571060657501
v -0.03030390292406082 0.04172386974096298 0.09294969588518143
v -0.0372021347284317 0.0348023995757103 0.09234616905450821
v -0.032435573637485504 0.04138510674238205 0.09276320040225983
v -0.0368645116686821 0.036941248923540115 0.09237571060657501
v -0.03435858339071274 0.04040197655558586 0.0925949439406395
v -0.03588469326496124 0.03887072950601578 0.09246142953634262
v -0.028932733461260796 0.039283037185668945 0.09398866444826126
v -0.030383693054318428 0.03951362892985344 0.09386171400547028
v -0.03183465451002121 0.039283037185668945 0.09373477846384048
v -0.03314358368515968 0.03861385956406593 0.09362027049064636
v -0.034182362258434296 0.037571586668491364 0.09352938085794449
v -0.034849293529987335 0.03625824674963951 0.09347102791070938
v -0.027623793110251427 0.03861385956406593 0.09410318732261658
v -0.03507910296320915 0.0348023995757103 0.09345092624425888
v -0.02658502385020256 0.037571586668491364 0.09419405460357666
v -0.034849293529987335 0.033346548676490784 0.09347102791070938
v -0.02591809257864952 0.03625824674963951 0.09425240755081177
v -0.034182362258434296 0.03203320875763893 0.09352938085794449
v -0.025688283145427704 0.0348023995757103 0.09427251666784286
v -0.03314358368515968 0.03099093772470951 0.09362027049064636
v -0.02591809257864952 0.033346548676490784 0.09425240755081177
v -0.03183465451002121 0.03032175824046135 0.09373477846384048
v -0.02658502385020256 0.03203320875763893 0.09419405460357666
v -0.030383693054318428 0.03009117767214775 0.09386171400547028
v -0.027623793110251427 0.03099093772470951 0.09410318732261658
v -0.028932733461260796 0.03032175824046135 0.09398866444826126
v -0.028171733021736145 0.03406539931893349 0.09461585432291031
v -0.028509363532066345 0.03340054675936699 0.0945863202214241
v -0.02903522364795208 0.03287290781736374 0.0945403203368187
v -0.02969784289598465 0.032534148544073105 0.09448233991861343
v -0.03044872358441353 0.0348023995757103 0.09460506588220596
v -0.02805539406836033 0.0348023995757103 0.0946260392665863
v -0.030432363972067833 0.0324174165725708 0.09441807866096497
v -0.031166892498731613 0.032534148544073105 0.0943538174033165
v -0.028171733021736145 0.03553939610719681 0.09461585432291031
v -0.03182951360940933 0.03287290781736374 0.09429584443569183
v -0.028509363532066345 0.036204248666763306 0.0945863202214241
v -0.03235537186264992 0.03340054675936699 0.09424983710050583
v -0.02903522364795208 0.03673187643289566 0.0945403203368187
v -0.03269300237298012 0.03406539931893349 0.09422029554843903
v -0.02969784289598465 0.03707064688205719 0.09448233991861343
v -0.03280933201313019 0.0348023995757103 0.09421011805534363
v -0.030432363972067833 0.037187378853559494 0.09441807866096497
v -0.03269300237298012 0.03553939610719681 0.09422029554843903
v -0.031166892498731613 0.03707064688205719 0.0943538174033165
v -0.03235538303852081 0.036204248666763306 0.09424983710050583
v -0.03182951360940933 0.03673187643289566 0.09429584443569183
v 0.014699926599860191 0.03998906910419464 0.07977419346570969
v 0.015466736629605293 0.03987377882003784 0.08446580916643143
v 0.017558887600898743 0.04399365931749344 0.0842827633023262
v 0.016844887286424637 0.044212959706783295 0.07958654314279556
v 0.01396083738654852 0.035306837409734726 0.07983885705471039
v 0.0208174679428339 0.04726322740316391 0.08399767428636551
v 0.020185746252536774 0.04756505787372589 0.07929424941539764
v 0.014745847322046757 0.035306837409734726 0.0845288634300232
v 0.014699936844408512 0.030624618753790855 0.07977419346570969
v 0.02492353692650795 0.0493624173104763 0.08363843709230423
v 0.024395467713475227 0.0497172474861145 0.0789259597659111
v 0.015466746874153614 0.030739909037947655 0.08446580916643143
v 0.016844896599650383 0.026400728151202202 0.07958654314279556
v 0.029475137591362 0.05008573830127716 0.08324023336172104
v 0.029061976820230484 0.05045883730053902 0.07851769030094147
v 0.017558887600898743 0.026620028540492058 0.0842827633023262
v 0.020185746252536774 0.023048628121614456 0.07929424941539764
v 0.034026745706796646 0.049362409859895706 0.08284201472997665
v 0.033728476613759995 0.0497172474861145 0.07810941338539124
v 0.020817477256059647 0.023350458592176437 0.08399767428636551
v 0.024395467713475227 0.02089644782245159 0.07892594486474991
v 0.03813280537724495 0.04726322740316391 0.08248277753591537
v 0.0379381962120533 0.04756505787372589 0.0777411088347435
v 0.02492353692650795 0.02125127799808979 0.08363843709230423
v 0.029061976820230484 0.02015484869480133 0.07851769030094147
v 0.041391387581825256 0.04399365931749344 0.08219769597053528
v 0.04127904772758484 0.044212959706783295 0.07744883000850677
v 0.029475137591362 0.020527949556708336 0.08324023336172104
v 0.033728476613759995 0.02089644782245159 0.07810941338539124
v 0.043483536690473557 0.039873767644166946 0.08201465755701065
v 0.043424006551504135 0.03998906910419464 0.07726116478443146
v 0.034026745706796646 0.02125127799808979 0.08284201472997665
v 0.0379381962120533 0.023048628121614456 0.0777411088347435
v 0.044204436242580414 0.035306837409734726 0.0819515734910965
v 0.04416310787200928 0.035306837409734726 0.07719649374485016
v 0.03813280537724495 0.023350458592176437 0.08248277753591537
v 0.04127904772758484 0.026400728151202202 0.07744883000850677
v 0.043483536690473557 0.030739909037947655 0.08201465755701065
v 0.043424006551504135 0.030624618753790855 0.07726116478443146
v 0.041391387581825256 0.02662001922726631 0.08219769597053528
v 0.04214155673980713 0.03931143879890442 0.08654211461544037
v 0.04277368634939194 0.035306837409734726 0.08648681640625
v 0.04214155673980713 0.03130224719643593 0.08654211461544037
v 0.040307026356458664 0.027689648792147636 0.0867026150226593
v 0.0374496653676033 0.024822678416967392 0.08695259690284729
v 0.03384919837117195 0.022981969639658928 0.08726760745048523
v 0.040307026356458664 0.04292403906583786 0.0867026150226593
v 0.02985803782939911 0.022347697988152504 0.08761678636074066
v 0.0374496653676033 0.045791007578372955 0.08695259690284729
v 0.025866886600852013 0.022981969639658928 0.0879659652709961
v 0.03384919837117195 0.047631729394197464 0.08726760745048523
v 0.022266417741775513 0.024822678416967392 0.08828095346689224
v 0.02985803782939911 0.04826598986983299 0.08761678636074066
v 0.019409067928791046 0.027689648792147636 0.08853095024824142
v 0.025866886600852013 0.047631729394197464 0.0879659652709961
v 0.017574526369571686 0.03130224719643593 0.08869144320487976
v 0.022266406565904617 0.04579101875424385 0.08828095346689224
v 0.01694238744676113 0.035306837409734726 0.08874675631523132
v 0.01940905675292015 0.04292403906583786 0.08853095024824142
v 0.01757451705634594 0.03931143879890442 0.08869144320487976
v 0.03017318621277809 0.04517769813537598 0.09121893346309662
v 0.0271331574767828 0.04469458758831024 0.0914849042892456
v 0.02439071610569954 0.043292537331581116 0.09172485023736954
v 0.022214287891983986 0.041108787059783936 0.09191524982452393
v 0.020816946402192116 0.03835710883140564 0.09203750640153885
v 0.020335456356406212 0.035306837409734726 0.09207962453365326
v 0.03321321681141853 0.04469458758831024 0.09095297753810883
v 0.02081695757806301 0.03225657716393471 0.09203750640153885
v 0.03595566749572754 0.043292537331581116 0.09071303904056549
v 0.022214297205209732 0.029504898935556412 0.09191524982452393
v 0.038132086396217346 0.041108787059783936 0.09052262455224991
v 0.02439071610569954 0.02732114866375923 0.09172485023736954
v 0.039529427886009216 0.03835710883140564 0.09040037542581558
v 0.027133166790008545 0.025919098407030106 0.0914849042892456
v 0.04001091793179512 0.035306837409734726 0.09035824984312057
v 0.03017318621277809 0.02543598785996437 0.09121893346309662
v 0.039529427886009216 0.03225657716393471 0.09040037542581558
v 0.03321321681141853 0.025919098407030106 0.09095297753810883
v 0.038132086396217346 0.029504898935556412 0.09052262455224991
v 0.035955656319856644 0.02732114866375923 0.09071303904056549
v 0.03724807873368263 0.035306837409734726 0.09263455867767334
v 0.03691045567393303 0.03316798806190491 0.09266410022974014
v 0.03593063727021217 0.031238509342074394 0.09274981915950775
v 0.03440451622009277 0.029707258567214012 0.09288333356380463
v 0.032481517642736435 0.02872413955628872 0.09305159002542496
v 0.030349837616086006 0.028385378420352936 0.09323808550834656
v 0.03691045567393303 0.03744569793343544 0.09266410022974014
v 0.028218166902661324 0.02872413955628872 0.09342457354068756
v 0.03593063727021217 0.0393751785159111 0.09274981915950775
v 0.02629515714943409 0.029707258567214012 0.0935928151011467
v 0.03440451622009277 0.040906429290771484 0.09288333356380463
v 0.024769047275185585 0.031238509342074394 0.09372633695602417
v 0.032481517642736435 0.04188954830169678 0.09305159002542496
v 0.02378922700881958 0.03316798806190491 0.09381206333637238
v 0.030349837616086006 0.04222830757498741 0.09323808550834656
v 0.023451607674360275 0.035306837409734726 0.09384159743785858
v 0.028218166902661324 0.04188954830169678 0.09342457354068756
v 0.02378922700881958 0.03744569793343544 0.09381206333637238
v 0.02629515714943409 0.040906429290771484 0.0935928151011467
v 0.024769047275185585 0.0393751785159111 0.09372633695602417
v 0.03188059851527214 0.03978747874498367 0.09402316808700562
v 0.030429627746343613 0.04001807048916817 0.0941501036286354
v 0.028978677466511726 0.03978747874498367 0.09427705407142639
v 0.027669737115502357 0.03911830857396126 0.09439157694578171
v 0.026630956679582596 0.03807602822780609 0.09448244422674179
v 0.025964027270674706 0.03676268830895424 0.0945407971739769
v 0.033189527690410614 0.03911830857396126 0.09390866011381149
v 0.02573421783745289 0.035306837409734726 0.094560906291008
v 0.034228306263685226 0.03807602822780609 0.09381776303052902
v 0.025964027270674706 0.03385099768638611 0.0945407971739769
v 0.034895237535238266 0.03676268830895424 0.09375941753387451
v 0.02663096785545349 0.032537657767534256 0.09448244422674179
v 0.03512504696846008 0.035306837409734726 0.09373931586742401
v 0.027669737115502357 0.03149537742137909 0.09439157694578171
v 0.034895237535238266 0.03385099768638611 0.09375941753387451
v 0.028978677466511726 0.030826197937130928 0.09427705407142639
v 0.034228306263685226 0.032537657767534256 0.09381776303052902
v 0.030429627746343613 0.03059561923146248 0.0941501036286354
v 0.033189527690410614 0.03149537742137909 0.09390866011381149
v 0.03188059851527214 0.030826197937130928 0.09402316808700562
v 0.03273894637823105 0.03456984832882881 0.09450868517160416
v 0.03240131586790085 0.03390498831868172 0.09453822672367096
v 0.03187545761466026 0.03337736055254936 0.09458423405885696
v 0.031212836503982544 0.03303859755396843 0.09464220702648163
v 0.03049466758966446 0.035306837409734726 0.0948934555053711
v 0.03285527601838112 0.035306837409734726 0.09449850767850876
v 0.030478306114673615 0.032921869307756424 0.0947064682841301
v 0.02974378690123558 0.03303859755396843 0.09477072954177856
v 0.03273894637823105 0.036043837666511536 0.09450868517160416
v 0.029081156477332115 0.03337736055254936 0.09482870995998383
v 0.03240131586790085 0.03670869767665863 0.09453822672367096
v 0.02855529636144638 0.03390498831868172 0.09487470984458923
v 0.03187545761466026 0.037236329168081284 0.09458423405885696
v 0.028217677026987076 0.03456984832882881 0.09490424394607544
v 0.031212836503982544 0.03757508844137192 0.09464220702648163
v 0.02810133621096611 0.035306837409734726 0.09491442888975143
v 0.030478306114673615 0.03769182041287422 0.0947064682841301
v 0.02821766771376133 0.036043837666511536 0.09490424394607544
v 0.02974378690123558 0.03757508844137192 0.09477072954177856
v 0.02855529636144638 0.03670869767665863 0.09487470984458923
v 0.029081156477332115 0.037236329168081284 0.09482870995998383

vt 0.955056 0.64779
vt 0.9755287 0.654439
vt 0.9045089 0.7937603
vt 0.8870938 0.7811131
vt 0.9784738 0.5
vt 0.793893 0.9043264
vt 1.0 0.5
vt 0.7812401 0.886919
vt 0.9550557 0.3522102
vt 0.6545087 0.9753141
vt 0.9755285 0.3455611
vt 0.6478567 0.9548507
vt 0.8870935 0.218887
vt 0.5000001 0.9997749
vt 0.9045087 0.2062398
vt 0.5000001 0.9782583
vt 0.78124 0.1130812
vt 0.3454916 0.9753141
vt 0.7938929 0.0956738
vt 0.3521436 0.9548507
vt 0.6478567 0.04514956
vt 0.2061074 0.9043263
vt 0.6545087 0.0246861
vt 0.2187603 0.886919
vt 0.5000001 0.02174199
vt 0.09549153 0.7937603
vt 0.5000001 0.0002253652
vt 0.1129068 0.7811131
vt 0.3521436 0.04514956
vt 0.02447182 0.654439
vt 0.3454916 0.0246861
vt 0.04494452 0.64779
vt 0.2187604 0.1130811
vt 5.960464e-08 0.5
vt 0.2061075 0.0956738
vt 0.02152646 0.5
vt 0.1129068 0.218887
vt 0.02447182 0.3455611
vt 0.09549165 0.2062398
vt 0.04494452 0.3522102
vt 0.955056 0.64779
vt 0.9755287 0.654439
vt 0.9045089 0.7937603
vt 0.8870938 0.7811131
vt 0.9784738 0.5
vt 0.793893 0.9043264
vt 1.0 0.5
vt 0.7812401 0.886919
vt 0.9550557 0.3522102
vt 0.6545087 0.9753141
vt 0.9755285 0.3455611
vt 0.6478567 0.9548507
vt 0.8870935 0.218887
vt 0.5000001 0.9997749
vt 0.9045087 0.2062398
vt 0.5000001 0.9782583
vt 0.78124 0.1130812
vt 0.3454916 0.9753141
vt 0.7938929 0.0956738
vt 0.3521436 0.9548507
vt 0.6478567 0.04514956
vt 0.2061074 0.9043263
vt 0.6545087 0.0246861
vt 0.2187603 0.886919
vt 0.5000001 0.02174199
vt 0.09549153 0.7937603
vt 0.5000001 0.0002253652
vt 0.1129068 0.7811131
vt 0.3521436 0.04514956
vt 0.02447182 0.654439
vt 0.3454916 0.0246861
vt 0.04494452 0.64779
vt 0.2187604 0.1130811
vt 5.960464e-08 0.5
vt 0.2061075 0.0956738
vt 0.02152646 0.5
vt 0.1129068 0.218887
vt 0.02447182 0.3455611
vt 0.09549165 0.2062398
vt 0.04494452 0.3522102
vt 0.9755287 0.654439
vt 0.9638196 0.6506362
vt 0.8945485 0.786527
vt 0.9045089 0.7937603
vt 1.0 0.5
vt 0.7866564 0.8943706
vt 0.793893 0.9043264
vt 0.9876885 0.5
vt 0.9755285 0.3455611
vt 0.6507043 0.9636104
vt 0.6545087 0.9753141
vt 0.9638194 0.349364
vt 0.9045087 0.2062398
vt 0.5000001 0.9874688
vt 0.5000001 0.9997749
vt 0.8945483 0.2134732
vt 0.7938929 0.0956738
vt 0.3492961 0.9636104
vt 0.3454916 0.9753141
vt 0.7866561 0.1056297
vt 0.6545087 0.0246861
vt 0.213344 0.8943704
vt 0.2061074 0.9043263
vt 0.6507041 0.03638983
vt 0.5000001 0.0002253652
vt 0.1054519 0.7865269
vt 0.09549153 0.7937603
vt 0.5000001 0.0125314
vt 0.3454916 0.0246861
vt 0.03618091 0.6506361
vt 0.02447182 0.654439
vt 0.3492962 0.03638983
vt 0.2061075 0.0956738
vt 0.0123117 0.5
vt 5.960464e-08 0.5
vt 0.2133441 0.1056297
vt 0.09549165 0.2062398
vt 0.03618091 0.3493639
vt 0.02447182 0.3455611
vt 0.1054519 0.2134731
vt 0.09329182 0.6320879
vt 0.07236171 0.5
vt 0.09329182 0.3679121
vt 0.1540334 0.2487538
vt 0.2486407 0.1541892
vt 0.3678526 0.09347504
vt 0.1540334 0.7512463
vt 0.5000001 0.07255435
vt 0.2486405 0.8458109
vt 0.6321477 0.09347504
vt 0.3678526 0.9065251
vt 0.7513597 0.1541892
vt 0.5000001 0.9274459
vt 0.8459668 0.2487538
vt 0.6321478 0.9065251
vt 0.9067084 0.3679121
vt 0.7513598 0.845811
vt 0.9276385 0.5
vt 0.8459671 0.7512465
vt 0.9067087 0.6320881
vt 0.5000001 0.8255816
vt 0.6006558 0.8096464
vt 0.6914585 0.763401
vt 0.76352 0.691372
vt 0.8097862 0.6006103
vt 0.8257283 0.5
vt 0.3993446 0.8096464
vt 0.8097861 0.3993899
vt 0.3085419 0.7634009
vt 0.7635198 0.3086281
vt 0.2364805 0.6913719
vt 0.6914583 0.2365992
vt 0.1902143 0.6006103
vt 0.6006557 0.1903538
vt 0.174272 0.5
vt 0.5000001 0.1744187
vt 0.1902143 0.3993899
vt 0.3993446 0.1903538
vt 0.2364805 0.3086281
vt 0.308542 0.2365992
vt 0.2715989 0.5
vt 0.2827777 0.4294519
vt 0.3152196 0.3658096
vt 0.3657492 0.3153027
vt 0.4294203 0.2828754
vt 0.5000001 0.2717017
vt 0.2827777 0.5705481
vt 0.57058 0.2828754
vt 0.3152196 0.6341904
vt 0.6342511 0.3153028
vt 0.3657492 0.6846973
vt 0.6847807 0.3658096
vt 0.4294203 0.7171247
vt 0.7172227 0.4294519
vt 0.5000001 0.7282984
vt 0.7284014 0.5
vt 0.5705801 0.7171247
vt 0.7172228 0.5705482
vt 0.6342511 0.6846974
vt 0.6847808 0.6341906
vt 0.4519587 0.64779
vt 0.5000001 0.6553955
vt 0.5480417 0.64779
vt 0.5913806 0.6257176
vt 0.6257745 0.5913392
vt 0.6478567 0.5480199
vt 0.4086198 0.6257176
vt 0.6554657 0.5
vt 0.3742259 0.5913392
vt 0.6478567 0.4519802
vt 0.3521436 0.5480199
vt 0.6257744 0.4086608
vt 0.3445346 0.5
vt 0.5913805 0.3742825
vt 0.3521436 0.4519802
vt 0.5480417 0.3522102
vt 0.3742259 0.4086608
vt 0.5000001 0.3446046
vt 0.4086198 0.3742824
vt 0.4519587 0.3522102
vt 0.4251504 0.4756908
vt 0.4363291 0.4537612
vt 0.4537405 0.4363577
vt 0.47568 0.425184
vt 0.5000001 0.5
vt 0.4212984 0.5
vt 0.5000001 0.4213338
vt 0.5243204 0.425184
vt 0.4251504 0.5243093
vt 0.5462599 0.4363577
vt 0.4363291 0.5462389
vt 0.5636712 0.4537612
vt 0.4537405 0.5636424
vt 0.57485 0.4756908
vt 0.47568 0.5748161
vt 0.5787019 0.5
vt 0.5000001 0.5786663
vt 0.57485 0.5243093
vt 0.5243204 0.5748161
vt 0.5636712 0.5462389
vt 0.5462599 0.5636424
vt 0.9755287 0.654439
vt 0.9638196 0.6506362
vt 0.8945485 0.786527
vt 0.9045089 0.7937603
vt 1.0 0.5
vt 0.7866564 0.8943706
vt 0.793893 0.9043264
vt 0.9876885 0.5
vt 0.9755285 0.3455611
vt 0.6507043 0.9636104
vt 0.6545087 0.9753141
vt 0.9638194 0.349364
vt 0.9045087 0.2062398
vt 0.5000001 0.9874688
vt 0.5000001 0.9997749
vt 0.8945483 0.2134732
vt 0.7938929 0.0956738
vt 0.3492961 0.9636104
vt 0.3454916 0.9753141
vt 0.7866561 0.1056297
vt 0.6545087 0.0246861
vt 0.213344 0.8943704
vt 0.2061074 0.9043263
vt 0.6507041 0.03638983
vt 0.5000001 0.0002253652
vt 0.1054519 0.7865269
vt 0.09549153 0.7937603
vt 0.5000001 0.0125314
vt 0.3454916 0.0246861
vt 0.03618091 0.6506361
vt 0.02447182 0.654439
vt 0.3492962 0.03638983
vt 0.2061075 0.0956738
vt 0.0123117 0.5
vt 5.960464e-08 0.5
vt 0.2133441 0.1056297
vt 0.09549165 0.2062398
vt 0.03618091 0.3493639
vt 0.02447182 0.3455611
vt 0.1054519 0.2134731
vt 0.09329182 0.6320879
vt 0.07236171 0.5
vt 0.09329182 0.3679121
vt 0.1540334 0.2487538
vt 0.2486407 0.1541892
vt 0.3678526 0.09347504
vt 0.1540334 0.7512463
vt 0.5000001 0.07255435
vt 0.2486405 0.8458109
vt 0.6321477 0.09347504
vt 0.3678526 0.9065251
vt 0.7513597 0.1541892
vt 0.5000001 0.9274459
vt 0.8459668 0.2487538
vt 0.6321478 0.9065251
vt 0.9067084 0.3679121
vt 0.7513598 0.845811
vt 0.9276385 0.5
vt 0.8459671 0.7512465
vt 0.9067087 0.6320881
vt 0.5000001 0.8255816
vt 0.6006558 0.8096464
vt 0.6914585 0.763401
vt 0.76352 0.691372
vt 0.8097862 0.6006103
vt 0.8257283 0.5
vt 0.3993446 0.8096464
vt 0.8097861 0.3993899
vt 0.3085419 0.7634009
vt 0.7635198 0.3086281
vt 0.2364805 0.6913719
vt 0.6914583 0.2365992
vt 0.1902143 0.6006103
vt 0.6006557 0.1903538
vt 0.174272 0.5
vt 0.5000001 0.1744187
vt 0.1902143 0.3993899
vt 0.3993446 0.1903538
vt 0.2364805 0.3086281
vt 0.308542 0.2365992
vt 0.2715989 0.5
vt 0.2827777 0.4294519
vt 0.3152196 0.3658096
vt 0.3657492 0.3153027
vt 0.4294203 0.2828754
vt 0.5000001 0.2717017
vt 0.2827777 0.5705481
vt 0.57058 0.2828754
vt 0.3152196 0.6341904
vt 0.6342511 0.3153028
vt 0.3657492 0.6846973
vt 0.6847807 0.3658096
vt 0.4294203 0.7171247
vt 0.7172227 0.4294519
vt 0.5000001 0.7282984
vt 0.7284014 0.5
vt 0.5705801 0.7171247
vt 0.7172228 0.5705482
vt 0.6342511 0.6846974
vt 0.6847808 0.6341906
vt 0.4519587 0.64779
vt 0.5000001 0.6553955
vt 0.5480417 0.64779
vt 0.5913806 0.6257176
vt 0.6257745 0.5913392
vt 0.6478567 0.5480199
vt 0.4086198 0.6257176
vt 0.6554657 0.5
vt 0.3742259 0.5913392
vt 0.6478567 0.4519802
vt 0.3521436 0.5480199
vt 0.6257744 0.4086608
vt 0.3445346 0.5
vt 0.5913805 0.3742825
vt 0.3521436 0.4519802
vt 0.5480417 0.3522102
vt 0.3742259 0.4086608
vt 0.5000001 0.3446046
vt 0.4086198 0.3742824
vt 0.4519587 0.3522102
vt 0.4251504 0.4756908
vt 0.4363291 0.4537612
vt 0.4537405 0.4363577
vt 0.47568 0.425184
vt 0.5000001 0.5
vt 0.4212984 0.5
vt 0.5000001 0.4213338
vt 0.5243204 0.425184
vt 0.4251504 0.5243093
vt 0.5462599 0.4363577
vt 0.4363291 0.5462389
vt 0.5636712 0.4537612
vt 0.4537405 0.5636424
vt 0.57485 0.4756908
vt 0.47568 0.5748161
vt 0.5787019 0.5
vt 0.5000001 0.5786663
vt 0.57485 0.5243093
vt 0.5243204 0.5748161
vt 0.5636712 0.5462389
vt 0.5462599 0.5636424

vn -0.9156169 0.3039635 -0.2631578
vn -0.9440619 0.3089758 -0.1152435
vn -0.8025553 0.5876434 -0.1028601
vn -0.7764081 0.5781093 -0.2509581
vn -0.9635957 -7.103263e-07 -0.2673631
vn -0.5822358 0.8087124 -0.0835807
vn -0.9928328 -6.212895e-07 -0.1195119
vn -0.5596694 0.7955875 -0.2319709
vn -0.9156167 -0.3039645 -0.2631574
vn -0.3047217 0.9505938 -0.05929787
vn -0.9440613 -0.3089774 -0.1152435
vn -0.286667 0.9351634 -0.2080663
vn -0.7764087 -0.5781087 -0.2509578
vn 0.002833947 0.9994714 -0.03238878
vn -0.802555 -0.5876439 -0.1028598
vn 0.01588758 0.9832463 -0.1815882
vn -0.5596696 -0.7955873 -0.2319714
vn 0.31039 0.9505935 -0.005482474
vn -0.5822362 -0.8087121 -0.08358034
vn 0.3184431 0.935163 -0.1551262
vn -0.2866676 -0.935163 -0.2080667
vn 0.5879044 0.808712 0.01879378
vn -0.3047221 -0.9505936 -0.05929764
vn 0.591449 0.7955869 -0.1312617
vn 0.01588705 -0.9832463 -0.1815887
vn 0.8082243 0.5876432 0.03806529
vn 0.002833489 -0.9994714 -0.03238866
vn 0.808192 0.5781084 -0.1123231
vn 0.3184428 -0.9351631 -0.1551262
vn 0.9497312 0.3089764 0.05044187
vn 0.3103892 -0.9505938 -0.005482264
vn 0.9474033 0.3039642 -0.1001636
vn 0.591449 -0.795587 -0.1312613
vn 0.9985024 0.0 0.05470731
vn 0.5879039 -0.8087123 0.01879391
vn 0.9953838 0.0 -0.09597396
vn 0.808192 -0.5781084 -0.1123233
vn 0.9497311 -0.3089767 0.05044171
vn 0.808224 -0.5876436 0.03806518
vn 0.9474032 -0.3039646 -0.100164
vn -0.9474034 0.3039638 -0.1001643
vn -0.9497313 0.3089758 0.05044143
vn -0.808224 0.5876436 0.03806456
vn -0.8081915 0.578109 -0.1123234
vn -0.9953838 -9.021146e-07 -0.09597392
vn -0.5879043 0.8087122 0.01879328
vn -0.9985025 -9.114358e-07 0.05470717
vn -0.5914494 0.7955868 -0.1312601
vn -0.9474032 -0.3039644 -0.100164
vn -0.3103894 0.9505937 -0.005482357
vn -0.9497311 -0.3089765 0.05044162
vn -0.3184434 0.935163 -0.1551251
vn -0.8081917 -0.5781086 -0.1123235
vn -0.00283339 0.9994714 -0.03238856
vn -0.8082242 -0.5876434 0.03806505
vn -0.01588686 0.9832463 -0.1815883
vn -0.5914485 -0.7955872 -0.1312614
vn 0.304722 0.9505937 -0.05929751
vn -0.5879041 -0.8087123 0.01879371
vn 0.2866676 0.9351633 -0.2080656
vn -0.3184427 -0.9351631 -0.1551263
vn 0.5822365 0.8087119 -0.08358015
vn -0.3103893 -0.9505937 -0.005482185
vn 0.5596702 0.7955872 -0.2319703
vn -0.01588678 -0.9832461 -0.1815889
vn 0.8025552 0.5876436 -0.1028593
vn -0.002833385 -0.9994714 -0.03238835
vn 0.7764087 0.5781088 -0.250958
vn 0.2866671 -0.9351631 -0.2080667
vn 0.9440615 0.3089774 -0.1152431
vn 0.304722 -0.9505937 -0.05929754
vn 0.9156166 0.3039643 -0.2631576
vn 0.5596694 -0.7955874 -0.2319714
vn 0.9928328 0.0 -0.1195118
vn 0.5822362 -0.8087122 -0.08358041
vn 0.9635959 0.0 -0.267363
vn 0.7764083 -0.5781092 -0.2509581
vn 0.9440615 -0.3089772 -0.1152433
vn 0.8025552 -0.5876436 -0.1028598
vn 0.9156167 -0.3039643 -0.2631575
vn -0.9440619 0.3089758 -0.1152435
vn -0.9428365 0.3012774 0.1424472
vn -0.8048574 0.5730057 0.1544961
vn -0.8025553 0.5876434 -0.1028601
vn -0.9928328 -6.212895e-07 -0.1195119
vn -0.5900267 0.7885736 0.1732629
vn -0.5822358 0.8087124 -0.0835807
vn -0.990391 -5.892509e-07 0.1382954
vn -0.9440613 -0.3089774 -0.1152435
vn -0.3194224 0.9269271 0.1969149
vn -0.3047217 0.9505938 -0.05929787
vn -0.9428361 -0.3012786 0.1424474
vn -0.802555 -0.5876439 -0.1028598
vn -0.01952236 0.97459 0.2231437
vn 0.002833947 0.9994714 -0.03238878
vn -0.8048572 -0.573006 0.1544959
vn -0.5822362 -0.8087121 -0.08358034
vn 0.2803761 0.9269271 0.2493899
vn 0.31039 0.9505935 -0.005482474
vn -0.590027 -0.7885734 0.1732626
vn -0.3047221 -0.9505936 -0.05929764
vn 0.5509763 0.7885736 0.2730877
vn 0.5879044 0.808712 0.01879378
vn -0.3194227 -0.926927 0.1969146
vn 0.002833489 -0.9994714 -0.03238866
vn 0.7658017 0.573006 0.2919107
vn 0.8082243 0.5876432 0.03806529
vn -0.01952255 -0.9745901 0.2231436
vn 0.3103892 -0.9505938 -0.005482264
vn 0.9037768 0.3012784 0.3040046
vn 0.9497312 0.3089764 0.05044187
vn 0.2803758 -0.9269272 0.2493899
vn 0.5879039 -0.8087123 0.01879391
vn 0.9513301 0.0 0.3081738
vn 0.9985024 0.0 0.05470731
vn 0.5509757 -0.7885739 0.2730879
vn 0.808224 -0.5876436 0.03806518
vn 0.9037766 -0.3012787 0.3040048
vn 0.9497311 -0.3089767 0.05044171
vn 0.7658013 -0.5730064 0.291911
vn 0.7753278 0.2672844 0.5722113
vn 0.8175082 0.0 0.575917
vn 0.7753277 -0.2672846 0.5722114
vn 0.6529369 -0.5083627 0.5614631
vn 0.4623638 -0.6996273 0.5447397
vn 0.2222948 -0.8223913 0.5236959
vn 0.6529369 0.5083624 0.5614632
vn -0.04377886 -0.8646853 0.5004025
vn 0.4623637 0.6996273 0.5447398
vn -0.309856 -0.8223916 0.4771387
vn 0.2222947 0.8223915 0.5236959
vn -0.549933 -0.6996273 0.4561748
vn -0.04377932 0.8646853 0.5004024
vn -0.7405152 -0.5083622 0.439551
vn -0.3098556 0.8223915 0.4771391
vn -0.8629126 -0.2672841 0.4288836
vn -0.5499321 0.6996273 0.4561757
vn -0.9050955 -3.64815e-07 0.4252082
vn -0.7405146 0.5083624 0.4395518
vn -0.8629126 0.2672839 0.4288836
vn -0.06198411 0.7029908 0.7084927
vn -0.2782983 0.6686002 0.6895823
vn -0.4734669 0.568781 0.6725454
vn -0.6283876 0.4132752 0.6590391
vn -0.7278746 0.2172851 0.6503736
vn -0.7621598 1.346964e-07 0.6473889
vn 0.1543268 0.6685995 0.7274325
vn -0.7278743 -0.2172853 0.6503738
vn 0.3494867 0.5687805 0.7445453
vn -0.628388 -0.4132752 0.6590387
vn 0.5043992 0.4132755 0.7581456
vn -0.4734679 -0.5687806 0.672545
vn 0.6038808 0.2172851 0.7668867
vn -0.278298 -0.6686003 0.6895825
vn 0.6381636 0.0 0.7699008
vn -0.06198404 -0.7029904 0.7084931
vn 0.603881 -0.2172851 0.7668866
vn 0.1543268 -0.6685994 0.7274325
vn 0.5044001 -0.4132758 0.7581449
vn 0.3494878 -0.5687806 0.7445449
vn 0.4405342 0.0 0.8977358
vn 0.4153147 -0.1598672 0.8955201
vn 0.3421292 -0.3040735 0.8890933
vn 0.2281596 -0.4184992 0.8790914
vn 0.08456979 -0.4919547 0.8665035
vn -0.07458996 -0.5172638 0.8525695
vn 0.4153147 0.1598672 0.8955201
vn -0.2337495 -0.4919543 0.8386549
vn 0.3421284 0.3040734 0.8890937
vn -0.3773461 -0.4184986 0.8261167
vn 0.2281578 0.4184995 0.8790916
vn -0.4913225 -0.3040729 0.8161752
vn 0.08456973 0.4919547 0.8665037
vn -0.564509 -0.1598669 0.8097976
vn -0.07458825 0.5172637 0.8525696
vn -0.5897294 4.31484e-07 0.8076009
vn -0.2337502 0.4919544 0.8386548
vn -0.5645096 0.1598667 0.8097972
vn -0.3773459 0.4184984 0.826117
vn -0.4913215 0.3040723 0.8161759
vn 0.02047675 0.3172524 0.9481199
vn -0.08216189 0.3335752 0.9391363
vn -0.1848069 0.317252 0.93016
vn -0.2774035 0.2698781 0.92207
vn -0.3508939 0.1960844 0.9156551
vn -0.3980855 0.1030907 0.9115373
vn 0.1130709 0.2698781 0.9562326
vn -0.4143476 0.0 0.9101187
vn 0.1865631 0.1960836 0.9626762
vn -0.398085 -0.1030909 0.9115374
vn 0.2337517 0.1030903 0.9668157
vn -0.3508962 -0.1960842 0.9156544
vn 0.2500127 0.0 0.9682426
vn -0.2774042 -0.2698778 0.92207
vn 0.2337506 -0.1030907 0.9668159
vn -0.1848053 -0.3172515 0.9301604
vn 0.1865628 -0.1960838 0.9626762
vn -0.0821624 -0.3335751 0.9391363
vn 0.1130718 -0.2698781 0.9562325
vn 0.02047675 -0.3172527 0.9481199
vn 0.1043575 -0.0619222 0.9926103
vn 0.07601766 -0.1177762 0.9901264
vn 0.03187238 -0.1620976 0.9862599
vn -0.0237409 -0.1905532 0.9813898
vn -0.08715632 0.0 0.9961947
vn 0.1141227 0.0 0.9934667
vn -0.08538084 -0.2003583 0.9759952
vn -0.1470365 -0.1905542 0.9706026
vn 0.1043589 0.06192193 0.9926102
vn -0.2026573 -0.1620992 0.9657401
vn 0.07601726 0.1177758 0.9901264
vn -0.2467947 -0.1177751 0.9618844
vn 0.03186904 0.1620974 0.98626
vn -0.2751375 -0.06192043 0.9594088
vn -0.02374231 0.1905528 0.9813898
vn -0.2849054 0.0 0.9585556
vn -0.08538406 0.2003575 0.9759951
vn -0.2751381 0.06192028 0.9594086
vn -0.1470398 0.1905537 0.9706022
vn -0.2467934 0.1177755 0.9618846
vn -0.2026554 0.1620994 0.9657403
vn -0.9497313 0.3089758 0.05044143
vn -0.9037769 0.3012778 0.3040049
vn -0.7658014 0.5730063 0.2919109
vn -0.808224 0.5876436 0.03806456
vn -0.9985025 -9.114358e-07 0.05470717
vn -0.550976 0.7885739 0.2730874
vn -0.5879043 0.8087122 0.01879328
vn -0.9513301 -8.335762e-07 0.3081738
vn -0.9497311 -0.3089765 0.05044162
vn -0.2803757 0.9269274 0.2493892
vn -0.3103894 0.9505937 -0.005482357
vn -0.9037767 -0.3012784 0.3040047
vn -0.8082242 -0.5876434 0.03806505
vn 0.01952256 0.9745901 0.2231433
vn -0.00283339 0.9994714 -0.03238856
vn -0.7658017 -0.5730062 0.2919108
vn -0.5879041 -0.8087123 0.01879371
vn 0.3194225 0.9269271 0.1969144
vn 0.304722 0.9505937 -0.05929751
vn -0.5509761 -0.7885737 0.2730877
vn -0.3103893 -0.9505937 -0.005482185
vn 0.5900272 0.7885733 0.1732625
vn 0.5822365 0.8087119 -0.08358015
vn -0.280376 -0.9269271 0.2493899
vn -0.002833385 -0.9994714 -0.03238835
vn 0.8048575 0.5730056 0.154496
vn 0.8025552 0.5876436 -0.1028593
vn 0.01952253 -0.97459 0.2231437
vn 0.304722 -0.9505937 -0.05929754
vn 0.9428362 0.3012785 0.1424472
vn 0.9440615 0.3089774 -0.1152431
vn 0.3194224 -0.9269271 0.1969144
vn 0.5822362 -0.8087122 -0.08358041
vn 0.990391 0.0 0.1382952
vn 0.9928328 0.0 -0.1195118
vn 0.590027 -0.7885736 0.1732624
vn 0.8025552 -0.5876436 -0.1028598
vn 0.9428361 -0.3012787 0.1424471
vn 0.9440615 -0.3089772 -0.1152433
vn 0.8048573 -0.5730059 0.1544958
vn 0.8629128 0.267284 0.428883
vn 0.9050957 0.0 0.4252078
vn 0.8629127 -0.2672843 0.4288831
vn 0.7405148 -0.5083627 0.4395512
vn 0.5499328 -0.6996273 0.4561749
vn 0.3098561 -0.8223915 0.4771389
vn 0.7405154 0.5083622 0.4395508
vn 0.04377889 -0.8646856 0.5004022
vn 0.5499334 0.6996268 0.4561749
vn -0.2222947 -0.8223915 0.5236957
vn 0.3098559 0.8223912 0.4771395
vn -0.4623639 -0.6996273 0.5447397
vn 0.04377849 0.8646854 0.5004024
vn -0.6529372 -0.5083624 0.5614629
vn -0.2222945 0.8223913 0.5236962
vn -0.775328 -0.2672845 0.5722111
vn -0.4623636 0.699627 0.5447402
vn -0.8175084 -8.04548e-07 0.5759166
vn -0.6529367 0.5083624 0.5614637
vn -0.7753279 0.2672838 0.5722114
vn 0.06198395 0.70299 0.7084935
vn -0.1543262 0.6685988 0.7274331
vn -0.3494872 0.5687802 0.7445453
vn -0.5044001 0.4132755 0.758145
vn -0.6038812 0.2172846 0.7668865
vn -0.6381641 -7.923306e-07 0.7699004
vn 0.278298 0.6685993 0.6895832
vn -0.6038812 -0.2172853 0.7668862
vn 0.473468 0.5687799 0.6725455
vn -0.5044008 -0.4132754 0.7581446
vn 0.628388 0.4132752 0.6590388
vn -0.349488 -0.5687805 0.7445447
vn 0.7278742 0.2172852 0.6503739
vn -0.1543265 -0.6685996 0.7274325
vn 0.76216 0.0 0.6473888
vn 0.06198446 -0.7029902 0.7084932
vn 0.7278742 -0.2172853 0.6503739
vn 0.2782989 -0.6685995 0.6895828
vn 0.6283875 -0.4132754 0.6590391
vn 0.4734679 -0.56878 0.6725456
vn 0.5897293 0.0 0.807601
vn 0.5645089 -0.159867 0.8097976
vn 0.4913216 -0.3040722 0.8161759
vn 0.3773457 -0.4184988 0.8261168
vn 0.23375 -0.4919549 0.8386545
vn 0.07459012 -0.5172638 0.8525695
vn 0.5645086 0.159867 0.8097978
vn -0.08456848 -0.4919547 0.8665037
vn 0.4913214 0.3040723 0.8161761
vn -0.2281594 -0.4184995 0.8790914
vn 0.3773443 0.4184985 0.8261175
vn -0.3421302 -0.3040733 0.8890929
vn 0.2337493 0.4919546 0.8386549
vn -0.4153147 -0.1598675 0.89552
vn 0.07459048 0.5172637 0.8525693
vn -0.4405343 -4.762847e-07 0.8977358
vn -0.08456878 0.4919545 0.8665038
vn -0.4153142 0.1598667 0.8955204
vn -0.2281581 0.4184991 0.8790918
vn -0.3421287 0.3040732 0.8890936
vn 0.1848052 0.3172523 0.9301602
vn 0.08216131 0.3335748 0.9391366
vn -0.02047512 0.3172519 0.9481202
vn -0.1130706 0.2698779 0.9562327
vn -0.1865625 0.1960834 0.9626764
vn -0.2337503 0.1030901 0.966816
vn 0.2774032 0.269878 0.9220701
vn -0.2500128 -2.418388e-07 0.9682425
vn 0.3508929 0.1960839 0.9156557
vn -0.2337517 -0.1030907 0.9668157
vn 0.398084 0.1030907 0.9115379
vn -0.1865631 -0.1960835 0.9626762
vn 0.4143472 0.0 0.9101188
vn -0.1130701 -0.269878 0.9562327
vn 0.3980855 -0.1030909 0.9115373
vn -0.02047584 -0.3172522 0.9481201
vn 0.3508942 -0.1960841 0.9156551
vn 0.08216045 -0.333575 0.9391366
vn 0.2774032 -0.2698776 0.9220703
vn 0.184805 -0.3172521 0.9301603
vn 0.2751385 -0.06191975 0.9594085
vn 0.2467933 -0.1177749 0.9618847
vn 0.2026568 -0.1620989 0.9657401
vn 0.1470379 -0.1905541 0.9706024
vn 0.08715492 0.0 0.9961948
vn 0.2849059 0.0 0.9585555
vn 0.0853807 -0.2003582 0.9759952
vn 0.02373946 -0.1905529 0.9813898
vn 0.2751372 0.06191927 0.9594089
vn -0.03187202 -0.1620975 0.9862599
vn 0.2467922 0.1177744 0.961885
vn -0.07601725 -0.1177762 0.9901264
vn 0.2026588 0.1620994 0.9657397
vn -0.1043588 -0.0619222 0.9926102
vn 0.1470363 0.1905544 0.9706026
vn -0.114123 0.0 0.9934667
vn 0.08538061 0.2003578 0.9759954
vn -0.1043575 0.06192196 0.9926103
vn 0.02374444 0.1905529 0.9813897
vn -0.07601739 0.1177759 0.9901264
vn -0.03187229 0.1620976 0.9862599

f 1/1/1 2/2/2 3/3/3
f 1/1/1 3/3/3 4/4/4
f 5/5/5 2/2/2 1/1/1
f 4/4/4 3/3/3 6/6/6
f 5/5/5 7/7/7 2/2/2
f 4/4/4 6/6/6 8/8/8
f 9/9/9 7/7/7 5/5/5
f 8/8/8 6/6/6 10/10/10
f 9/9/9 11/11/11 7/7/7
f 8/8/8 10/10/10 12/12/12
f 13/13/13 11/11/11 9/9/9
f 12/12/12 10/10/10 14/14/14
f 13/13/13 15/15/15 11/11/11
f 12/12/12 14/14/14 16/16/16
f 17/17/17 15/15/15 13/13/13
f 16/16/16 14/14/14 18/18/18
f 17/17/17 19/19/19 15/15/15
f 16/16/16 18/18/18 20/20/20
f 21/21/21 19/19/19 17/17/17
f 20/20/20 18/18/18 22/22/22
f 21/21/21 23/23/23 19/19/19
f 20/20/20 22/22/22 24/24/24
f 25/25/25 23/23/23 21/21/21
f 24/24/24 22/22/22 26/26/26
f 25/25/25 27/27/27 23/23/23
f 24/24/24 26/26/26 28/28/28
f 29/29/29 27/27/27 25/25/25
f 28/28/28 26/26/26 30/30/30
f 29/29/29 31/31/31 27/27/27
f 28/28/28 30/30/30 32/32/32
f 33/33/33 31/31/31 29/29/29
f 32/32/32 30/30/30 34/34/34
f 33/33/33 35/35/35 31/31/31
f 32/32/32 34/34/34 36/36/36
f 37/37/37 35/35/35 33/33/33
f 36/36/36 34/34/34 38/38/38
f 37/37/37 39/39/39 35/35/35
f 36/36/36 38/38/38 40/40/40
f 40/40/40 39/39/39 37/37/37
f 40/40/40 38/38/38 39/39/39
f 41/41/41 42/42/42 43/43/43
f 41/41/41 43/43/43 44/44/44
f 45/45/45 42/42/42 41/41/41
f 44/44/44 43/43/43 46/46/46
f 45/45/45 47/47/47 42/42/42
f 44/44/44 46/46/46 48/48/48
f 49/49/49 47/47/47 45/45/45
f 48/48/48 46/46/46 50/50/50
f 49/49/49 51/51/51 47/47/47
f 48/48/48 50/50/50 52/52/52
f 53/53/53 51/51/51 49/49/49
f 52/52/52 50/50/50 54/54/54
f 53/53/53 55/55/55 51/51/51
f 52/52/52 54/54/54 56/56/56
f 57/57/57 55/55/55 53/53/53
f 56/56/56 54/54/54 58/58/58
f 57/57/57 59/59/59 55/55/55
f 56/56/56 58/58/58 60/60/60
f 61/61/61 59/59/59 57/57/57
f 60/60/60 58/58/58 62/62/62
f 61/61/61 63/63/63 59/59/59
f 60/60/60 62/62/62 64/64/64
f 65/65/65 63/63/63 61/61/61
f 64/64/64 62/62/62 66/66/66
f 65/65/65 67/67/67 63/63/63
f 64/64/64 66/66/66 68/68/68
f 69/69/69 67/67/67 65/65/65
f 68/68/68 66/66/66 70/70/70
f 69/69/69 71/71/71 67/67/67
f 68/68/68 70/70/70 72/72/72
f 73/73/73 71/71/71 69/69/69
f 72/72/72 70/70/70 74/74/74
f 73/73/73 75/75/75 71/71/71
f 72/72/72 74/74/74 76/76/76
f 77/77/77 75/75/75 73/73/73
f 76/76/76 74/74/74 78/78/78
f 77/77/77 79/79/79 75/75/75
f 76/76/76 78/78/78 80/80/80
f 80/80/80 79/79/79 77/77/77
f 80/80/80 78/78/78 79/79/79
f 81/81/81 82/82/82 83/83/83
f 81/81/81 83/83/83 84/84/84
f 85/85/85 82/82/82 81/81/81
f 84/84/84 83/83/83 86/86/86
f 84/84/84 86/86/86 87/87/87
f 85/85/85 88/88/88 82/82/82
f 89/89/89 88/88/88 85/85/85
f 87/87/87 86/86/86 90/90/90
f 87/87/87 90/90/90 91/91/91
f 89/89/89 92/92/92 88/88/88
f 93/93/93 92/92/92 89/89/89
f 91/91/91 90/90/90 94/94/94
f 91/91/91 94/94/94 95/95/95
f 93/93/93 96/96/96 92/92/92
f 97/97/97 96/96/96 93/93/93
f 95/95/95 94/94/94 98/98/98
f 95/95/95 98/98/98 99/99/99
f 97/97/97 100/100/100 96/96/96
f 101/101/101 100/100/100 97/97/97
f 99/99/99 98/98/98 102/102/102
f 99/99/99 102/102/102 103/103/103
f 101/101/101 104/104/104 100/100/100
f 105/105/105 104/104/104 101/101/101
f 103/103/103 102/102/102 106/106/106
f 103/103/103 106/106/106 107/107/107
f 105/105/105 108/108/108 104/104/104
f 109/109/109 108/108/108 105/105/105
f 107/107/107 106/106/106 110/110/110
f 107/107/107 110/110/110 111/111/111
f 109/109/109 112/112/112 108/108/108
f 113/113/113 112/112/112 109/109/109
f 111/111/111 110/110/110 114/114/114
f 111/111/111 114/114/114 115/115/115
f 113/113/113 116/116/116 112/112/112
f 117/117/117 116/116/116 113/113/113
f 115/115/115 114/114/114 118/118/118
f 115/115/115 118/118/118 119/119/119
f 119/119/119 120/120/120 117/117/117
f 117/117/117 120/120/120 116/116/116
f 119/119/119 118/118/118 120/120/120
f 106/106/106 121/121/121 110/110/110
f 110/110/110 122/122/122 114/114/114
f 110/110/110 121/121/121 122/122/122
f 114/114/114 123/123/123 118/118/118
f 114/114/114 122/122/122 123/123/123
f 118/118/118 124/124/124 120/120/120
f 118/118/118 123/123/123 124/124/124
f 120/120/120 125/125/125 116/116/116
f 120/120/120 124/124/124 125/125/125
f 116/116/116 126/126/126 112/112/112
f 116/116/116 125/125/125 126/126/126
f 106/106/106 127/127/127 121/121/121
f 102/102/102 127/127/127 106/106/106
f 112/112/112 126/126/126 128/128/128
f 112/112/112 128/128/128 108/108/108
f 102/102/102 129/129/129 127/127/127
f 98/98/98 129/129/129 102/102/102
f 108/108/108 128/128/128 130/130/130
f 108/108/108 130/130/130 104/104/104
f 98/98/98 131/131/131 129/129/129
f 94/94/94 131/131/131 98/98/98
f 104/104/104 130/130/130 132/132/132
f 104/104/104 132/132/132 100/100/100
f 94/94/94 133/133/133 131/131/131
f 90/90/90 133/133/133 94/94/94
f 100/100/100 132/132/132 134/134/134
f 100/100/100 134/134/134 96/96/96
f 90/90/90 135/135/135 133/133/133
f 86/86/86 135/135/135 90/90/90
f 96/96/96 134/134/134 136/136/136
f 96/96/96 136/136/136 92/92/92
f 86/86/86 137/137/137 135/135/135
f 83/83/83 137/137/137 86/86/86
f 92/92/92 136/136/136 138/138/138
f 92/92/92 138/138/138 88/88/88
f 83/83/83 139/139/139 137/137/137
f 82/82/82 139/139/139 83/83/83
f 88/88/88 140/140/140 82/82/82
f 88/88/88 138/138/138 140/140/140
f 82/82/82 140/140/140 139/139/139
f 135/135/135 141/141/141 133/133/133
f 137/137/137 142/142/142 135/135/135
f 135/135/135 142/142/142 141/141/141
f 139/139/139 143/143/143 137/137/137
f 137/137/137 143/143/143 142/142/142
f 140/140/140 144/144/144 139/139/139
f 139/139/139 144/144/144 143/143/143
f 138/138/138 145/145/145 140/140/140
f 140/140/140 145/145/145 144/144/144
f 136/136/136 146/146/146 138/138/138
f 138/138/138 146/146/146 145/145/145
f 133/133/133 141/141/141 147/147/147
f 133/133/133 147/147/147 131/131/131
f 136/136/136 148/148/148 146/146/146
f 134/134/134 148/148/148 136/136/136
f 131/131/131 147/147/147 149/149/149
f 131/131/131 149/149/149 129/129/129
f 134/134/134 150/150/150 148/148/148
f 132/132/132 150/150/150 134/134/134
f 129/129/129 149/149/149 151/151/151
f 129/129/129 151/151/151 127/127/127
f 132/132/132 152/152/152 150/150/150
f 130/130/130 152/152/152 132/132/132
f 127/127/127 151/151/151 153/153/153
f 127/127/127 153/153/153 121/121/121
f 130/130/130 154/154/154 152/152/152
f 128/128/128 154/154/154 130/130/130
f 121/121/121 153/153/153 155/155/155
f 121/121/121 155/155/155 122/122/122
f 128/128/128 156/156/156 154/154/154
f 126/126/126 156/156/156 128/128/128
f 122/122/122 155/155/155 157/157/157
f 122/122/122 157/157/157 123/123/123
f 126/126/126 158/158/158 156/156/156
f 125/125/125 158/158/158 126/126/126
f 123/123/123 157/157/157 159/159/159
f 123/123/123 159/159/159 124/124/124
f 124/124/124 160/160/160 125/125/125
f 125/125/125 160/160/160 158/158/158
f 124/124/124 159/159/159 160/160/160
f 153/153/153 161/161/161 155/155/155
f 155/155/155 162/162/162 157/157/157
f 155/155/155 161/161/161 162/162/162
f 157/157/157 163/163/163 159/159/159
f 157/157/157 162/162/162 163/163/163
f 159/159/159 164/164/164 160/160/160
f 159/159/159 163/163/163 164/164/164
f 160/160/160 165/165/165 158/158/158
f 160/160/160 164/164/164 165/165/165
f 158/158/158 166/166/166 156/156/156
f 158/158/158 165/165/165 166/166/166
f 153/153/153 167/167/167 161/161/161
f 151/151/151 167/167/167 153/153/153
f 156/156/156 166/166/166 168/168/168
f 156/156/156 168/168/168 154/154/154
f 151/151/151 169/169/169 167/167/167
f 149/149/149 169/169/169 151/151/151
f 154/154/154 168/168/168 170/170/170
f 154/154/154 170/170/170 152/152/152
f 149/149/149 171/171/171 169/169/169
f 147/147/147 171/171/171 149/149/149
f 152/152/152 170/170/170 172/172/172
f 152/152/152 172/172/172 150/150/150
f 147/147/147 173/173/173 171/171/171
f 141/141/141 173/173/173 147/147/147
f 150/150/150 172/172/172 174/174/174
f 150/150/150 174/174/174 148/148/148
f 141/141/141 175/175/175 173/173/173
f 142/142/142 175/175/175 141/141/141
f 148/148/148 174/174/174 176/176/176
f 148/148/148 176/176/176 146/146/146
f 142/142/142 177/177/177 175/175/175
f 143/143/143 177/177/177 142/142/142
f 146/146/146 176/176/176 178/178/178
f 146/146/146 178/178/178 145/145/145
f 143/143/143 179/179/179 177/177/177
f 144/144/144 179/179/179 143/143/143
f 145/145/145 180/180/180 144/144/144
f 145/145/145 178/178/178 180/180/180
f 144/144/144 180/180/180 179/179/179
f 175/175/175 181/181/181 173/173/173
f 177/177/177 182/182/182 175/175/175
f 175/175/175 182/182/182 181/181/181
f 179/179/179 183/183/183 177/177/177
f 177/177/177 183/183/183 182/182/182
f 180/180/180 184/184/184 179/179/179
f 179/179/179 184/184/184 183/183/183
f 178/178/178 185/185/185 180/180/180
f 180/180/180 185/185/185 184/184/184
f 176/176/176 186/186/186 178/178/178
f 178/178/178 186/186/186 185/185/185
f 173/173/173 181/181/181 187/187/187
f 173/173/173 187/187/187 171/171/171
f 176/176/176 188/188/188 186/186/186
f 174/174/174 188/188/188 176/176/176
f 171/171/171 187/187/187 189/189/189
f 171/171/171 189/189/189 169/169/169
f 174/174/174 190/190/190 188/188/188
f 172/172/172 190/190/190 174/174/174
f 169/169/169 189/189/189 191/191/191
f 169/169/169 191/191/191 167/167/167
f 172/172/172 192/192/192 190/190/190
f 170/170/170 192/192/192 172/172/172
f 167/167/167 191/191/191 193/193/193
f 167/167/167 193/193/193 161/161/161
f 170/170/170 194/194/194 192/192/192
f 168/168/168 194/194/194 170/170/170
f 161/161/161 193/193/193 195/195/195
f 161/161/161 195/195/195 162/162/162
f 168/168/168 196/196/196 194/194/194
f 166/166/166 196/196/196 168/168/168
f 162/162/162 195/195/195 197/197/197
f 162/162/162 197/197/197 163/163/163
f 166/166/166 198/198/198 196/196/196
f 165/165/165 198/198/198 166/166/166
f 163/163/163 197/197/197 199/199/199
f 163/163/163 199/199/199 164/164/164
f 164/164/164 200/200/200 165/165/165
f 165/165/165 200/200/200 198/198/198
f 164/164/164 199/199/199 200/200/200
f 193/193/193 201/201/201 195/195/195
f 195/195/195 202/202/202 197/197/197
f 195/195/195 201/201/201 202/202/202
f 197/197/197 203/203/203 199/199/199
f 197/197/197 202/202/202 203/203/203
f 199/199/199 204/204/204 200/200/200
f 199/199/199 203/203/203 204/204/204
f 202/202/202 205/205/205 203/203/203
f 201/201/201 205/205/205 202/202/202
f 203/203/203 205/205/205 204/204/204
f 206/206/206 205/205/205 201/201/201
f 193/193/193 206/206/206 201/201/201
f 204/204/204 205/205/205 207/207/207
f 200/200/200 204/204/204 207/207/207
f 200/200/200 207/207/207 198/198/198
f 191/191/191 206/206/206 193/193/193
f 198/198/198 207/207/207 208/208/208
f 207/207/207 205/205/205 208/208/208
f 198/198/198 208/208/208 196/196/196
f 191/191/191 209/209/209 206/206/206
f 209/209/209 205/205/205 206/206/206
f 189/189/189 209/209/209 191/191/191
f 196/196/196 208/208/208 210/210/210
f 208/208/208 205/205/205 210/210/210
f 196/196/196 210/210/210 194/194/194
f 189/189/189 211/211/211 209/209/209
f 211/211/211 205/205/205 209/209/209
f 187/187/187 211/211/211 189/189/189
f 194/194/194 210/210/210 212/212/212
f 210/210/210 205/205/205 212/212/212
f 194/194/194 212/212/212 192/192/192
f 187/187/187 213/213/213 211/211/211
f 213/213/213 205/205/205 211/211/211
f 212/212/212 205/205/205 214/214/214
f 192/192/192 212/212/212 214/214/214
f 215/215/215 205/205/205 213/213/213
f 181/181/181 213/213/213 187/187/187
f 181/181/181 215/215/215 213/213/213
f 192/192/192 214/214/214 190/190/190
f 182/182/182 215/215/215 181/181/181
f 190/190/190 214/214/214 216/216/216
f 214/214/214 205/205/205 216/216/216
f 190/190/190 216/216/216 188/188/188
f 182/182/182 217/217/217 215/215/215
f 217/217/217 205/205/205 215/215/215
f 183/183/183 217/217/217 182/182/182
f 188/188/188 216/216/216 218/218/218
f 216/216/216 205/205/205 218/218/218
f 188/188/188 218/218/218 186/186/186
f 183/183/183 219/219/219 217/217/217
f 219/219/219 205/205/205 217/217/217
f 184/184/184 219/219/219 183/183/183
f 186/186/186 218/218/218 220/220/220
f 218/218/218 205/205/205 220/220/220
f 186/186/186 220/220/220 185/185/185
f 185/185/185 221/221/221 184/184/184
f 184/184/184 221/221/221 219/219/219
f 221/221/221 205/205/205 219/219/219
f 185/185/185 220/220/220 221/221/221
f 220/220/220 205/205/205 221/221/221
f 222/222/222 223/223/223 224/224/224
f 222/222/222 224/224/224 225/225/225
f 226/226/226 223/223/223 222/222/222
f 225/225/225 224/224/224 227/227/227
f 225/225/225 227/227/227 228/228/228
f 226/226/226 229/229/229 223/223/223
f 230/230/230 229/229/229 226/226/226
f 228/228/228 227/227/227 231/231/231
f 228/228/228 231/231/231 232/232/232
f 230/230/230 233/233/233 229/229/229
f 234/234/234 233/233/233 230/230/230
f 232/232/232 231/231/231 235/235/235
f 232/232/232 235/235/235 236/236/236
f 234/234/234 237/237/237 233/233/233
f 238/238/238 237/237/237 234/234/234
f 236/236/236 235/235/235 239/239/239
f 236/236/236 239/239/239 240/240/240
f 238/238/238 241/241/241 237/237/237
f 242/242/242 241/241/241 238/238/238
f 240/240/240 239/239/239 243/243/243
f 240/240/240 243/243/243 244/244/244
f 242/242/242 245/245/245 241/241/241
f 246/246/246 245/245/245 242/242/242
f 244/244/244 243/243/243 247/247/247
f 244/244/244 247/247/247 248/248/248
f 246/246/246 249/249/249 245/245/245
f 250/250/250 249/249/249 246/246/246
f 248/248/248 247/247/247 251/251/251
f 248/248/248 251/251/251 252/252/252
f 250/250/250 253/253/253 249/249/249
f 254/254/254 253/253/253 250/250/250
f 252/252/252 251/251/251 255/255/255
f 252/252/252 255/255/255 256/256/256
f 254/254/254 257/257/257 253/253/253
f 258/258/258 257/257/257 254/254/254
f 256/256/256 255/255/255 259/259/259
f 256/256/256 259/259/259 260/260/260
f 260/260/260 261/261/261 258/258/258
f 258/258/258 261/261/261 257/257/257
f 260/260/260 259/259/259 261/261/261
f 247/247/247 262/262/262 251/251/251
f 251/251/251 263/263/263 255/255/255
f 251/251/251 262/262/262 263/263/263
f 255/255/255 264/264/264 259/259/259
f 255/255/255 263/263/263 264/264/264
f 259/259/259 265/265/265 261/261/261
f 259/259/259 264/264/264 265/265/265
f 261/261/261 266/266/266 257/257/257
f 261/261/261 265/265/265 266/266/266
f 257/257/257 267/267/267 253/253/253
f 257/257/257 266/266/266 267/267/267
f 247/247/247 268/268/268 262/262/262
f 243/243/243 268/268/268 247/247/247
f 253/253/253 267/267/267 269/269/269
f 253/253/253 269/269/269 249/249/249
f 243/243/243 270/270/270 268/268/268
f 239/239/239 270/270/270 243/243/243
f 249/249/249 269/269/269 271/271/271
f 249/249/249 271/271/271 245/245/245
f 239/239/239 272/272/272 270/270/270
f 235/235/235 272/272/272 239/239/239
f 245/245/245 271/271/271 273/273/273
f 245/245/245 273/273/273 241/241/241
f 235/235/235 274/274/274 272/272/272
f 231/231/231 274/274/274 235/235/235
f 241/241/241 273/273/273 275/275/275
f 241/241/241 275/275/275 237/237/237
f 231/231/231 276/276/276 274/274/274
f 227/227/227 276/276/276 231/231/231
f 237/237/237 275/275/275 277/277/277
f 237/237/237 277/277/277 233/233/233
f 227/227/227 278/278/278 276/276/276
f 224/224/224 278/278/278 227/227/227
f 233/233/233 277/277/277 279/279/279
f 233/233/233 279/279/279 229/229/229
f 224/224/224 280/280/280 278/278/278
f 223/223/223 280/280/280 224/224/224
f 229/229/229 281/281/281 223/223/223
f 229/229/229 279/279/279 281/281/281
f 223/223/223 281/281/281 280/280/280
f 276/276/276 282/282/282 274/274/274
f 278/278/278 283/283/283 276/276/276
f 276/276/276 283/283/283 282/282/282
f 280/280/280 284/284/284 278/278/278
f 278/278/278 284/284/284 283/283/283
f 281/281/281 285/285/285 280/280/280
f 280/280/280 285/285/285 284/284/284
f 279/279/279 286/286/286 281/281/281
f 281/281/281 286/286/286 285/285/285
f 277/277/277 287/287/287 279/279/279
f 279/279/279 287/287/287 286/286/286
f 274/274/274 282/282/282 288/288/288
f 274/274/274 288/288/288 272/272/272
f 277/277/277 289/289/289 287/287/287
f 275/275/275 289/289/289 277/277/277
f 272/272/272 288/288/288 290/290/290
f 272/272/272 290/290/290 270/270/270
f 275/275/275 291/291/291 289/289/289
f 273/273/273 291/291/291 275/275/275
f 270/270/270 290/290/290 292/292/292
f 270/270/270 292/292/292 268/268/268
f 273/273/273 293/293/293 291/291/291
f 271/271/271 293/293/293 273/273/273
f 268/268/268 292/292/292 294/294/294
f 268/268/268 294/294/294 262/262/262
f 271/271/271 295/295/295 293/293/293
f 269/269/269 295/295/295 271/271/271
f 262/262/262 294/294/294 296/296/296
f 262/262/262 296/296/296 263/263/263
f 269/269/269 297/297/297 295/295/295
f 267/267/267 297/297/297 269/269/269
f 263/263/263 296/296/296 298/298/298
f 263/263/263 298/298/298 264/264/264
f 267/267/267 299/299/299 297/297/297
f 266/266/266 299/299/299 267/267/267
f 264/264/264 298/298/298 300/300/300
f 264/264/264 300/300/300 265/265/265
f 265/265/265 301/301/301 266/266/266
f 266/266/266 301/301/301 299/299/299
f 265/265/265 300/300/300 301/301/301
f 294/294/294 302/302/302 296/296/296
f 296/296/296 303/303/303 298/298/298
f 296/296/296 302/302/302 303/303/303
f 298/298/298 304/304/304 300/300/300
f 298/298/298 303/303/303 304/304/304
f 300/300/300 305/305/305 301/301/301
f 300/300/300 304/304/304 305/305/305
f 301/301/301 306/306/306 299/299/299
f 301/301/301 305/305/305 306/306/306
f 299/299/299 307/307/307 297/297/297
f 299/299/299 306/306/306 307/307/307
f 294/294/294 308/308/308 302/302/302
f 292/292/292 308/308/308 294/294/294
f 297/297/297 307/307/307 309/309/309
f 297/297/297 309/309/309 295/295/295
f 292/292/292 310/310/310 308/308/308
f 290/290/290 310/310/310 292/292/292
f 295/295/295 309/309/309 311/311/311
f 295/295/295 311/311/311 293/293/293
f 290/290/290 312/312/312 310/310/310
f 288/288/288 312/312/312 290/290/290
f 293/293/293 311/311/311 313/313/313
f 293/293/293 313/313/313 291/291/291
f 288/288/288 314/314/314 312/312/312
f 282/282/282 314/314/314 288/288/288
f 291/291/291 313/313/313 315/315/315
f 291/291/291 315/315/315 289/289/289
f 282/282/282 316/316/316 314/314/314
f 283/283/283 316/316/316 282/282/282
f 289/289/289 315/315/315 317/317/317
f 289/289/289 317/317/317 287/287/287
f 283/283/283 318/318/318 316/316/316
f 284/284/284 318/318/318 283/283/283
f 287/287/287 317/317/317 319/319/319
f 287/287/287 319/319/319 286/286/286
f 284/284/284 320/320/320 318/318/318
f 285/285/285 320/320/320 284/284/284
f 286/286/286 321/321/321 285/285/285
f 286/286/286 319/319/319 321/321/321
f 285/285/285 321/321/321 320/320/320
f 316/316/316 322/322/322 314/314/314
f 318/318/318 323/323/323 316/316/316
f 316/316/316 323/323/323 322/322/322
f 320/320/320 324/324/324 318/318/318
f 318/318/318 324/324/324 323/323/323
f 321/321/321 325/325/325 320/320/320
f 320/320/320 325/325/325 324/324/324
f 319/319/319 326/326/326 321/321/321
f 321/321/321 326/326/326 325/325/325
f 317/317/317 327/327/327 319/319/319
f 319/319/319 327/327/327 326/326/326
f 314/314/314 322/322/322 328/328/328
f 314/314/314 328/328/328 312/312/312
f 317/317/317 329/329/329 327/327/327
f 315/315/315 329/329/329 317/317/317
f 312/312/312 328/328/328 330/330/330
f 312/312/312 330/330/330 310/310/310
f 315/315/315 331/331/331 329/329/329
f 313/313/313 331/331/331 315/315/315
f 310/310/310 330/330/330 332/332/332
f 310/310/310 332/332/332 308/308/308
f 313/313/313 333/333/333 331/331/331
f 311/311/311 333/333/333 313/313/313
f 308/308/308 332/332/332 334/334/334
f 308/308/308 334/334/334 302/302/302
f 311/311/311 335/335/335 333/333/333
f 309/309/309 335/335/335 311/311/311
f 302/302/302 334/334/334 336/336/336
f 302/302/302 336/336/336 303/303/303
f 309/309/309 337/337/337 335/335/335
f 307/307/307 337/337/337 309/309/309
f 303/303/303 336/336/336 338/338/338
f 303/303/303 338/338/338 304/304/304
f 307/307/307 339/339/339 337/337/337
f 306/306/306 339/339/339 307/307/307
f 304/304/304 338/338/338 340/340/340
f 304/304/304 340/340/340 305/305/305
f 305/305/305 341/341/341 306/306/306
f 306/306/306 341/341/341 339/339/339
f 305/305/305 340/340/340 341/341/341
f 334/334/334 342/342/342 336/336/336
f 336/336/336 343/343/343 338/338/338
f 336/336/336 342/342/342 343/343/343
f 338/338/338 344/344/344 340/340/340
f 338/338/338 343/343/343 344/344/344
f 340/340/340 345/345/345 341/341/341
f 340/340/340 344/344/344 345/345/345
f 343/343/343 346/346/346 344/344/344
f 342/342/342 346/346/346 343/343/343
f 344/344/344 346/346/346 345/345/345
f 347/347/347 346/346/346 342/342/342
f 334/334/334 347/347/347 342/342/342
f 345/345/345 346/346/346 348/348/348
f 341/341/341 345/345/345 348/348/348
f 341/341/341 348/348/348 339/339/339
f 332/332/332 347/347/347 334/334/334
f 339/339/339 348/348/348 349/349/349
f 348/348/348 346/346/346 349/349/349
f 339/339/339 349/349/349 337/337/337
f 332/332/332 350/350/350 347/347/347
f 350/350/350 346/346/346 347/347/347
f 330/330/330 350/350/350 332/332/332
f 337/337/337 349/349/349 351/351/351
f 349/349/349 346/346/346 351/351/351
f 337/337/337 351/351/351 335/335/335
f 330/330/330 352/352/352 350/350/350
f 352/352/352 346/346/346 350/350/350
f 328/328/328 352/352/352 330/330/330
f 335/335/335 351/351/351 353/353/353
f 351/351/351 346/346/346 353/353/353
f 335/335/335 353/353/353 333/333/333
f 328/328/328 354/354/354 352/352/352
f 354/354/354 346/346/346 352/352/352
f 353/353/353 346/346/346 355/355/355
f 333/333/333 353/353/353 355/355/355
f 356/356/356 346/346/346 354/354/354
f 322/322/322 354/354/354 328/328/328
f 322/322/322 356/356/356 354/354/354
f 333/333/333 355/355/355 331/331/331
f 323/323/323 356/356/356 322/322/322
f 331/331/331 355/355/355 357/357/357
f 355/355/355 346/346/346 357/357/357
f 331/331/331 357/357/357 329/329/329
f 323/323/323 358/358/358 356/356/356
f 358/358/358 346/346/346 356/356/356
f 324/324/324 358/358/358 323/323/323
f 329/329/329 357/357/357 359/359/359
f 357/357/357 346/346/346 359/359/359
f 329/329/329 359/359/359 327/327/327
f 324/324/324 360/360/360 358/358/358
f 360/360/360 346/346/346 358/358/358
f 325/325/325 360/360/360 324/324/324
f 327/327/327 359/359/359 361/361/361
f 359/359/359 346/346/346 361/361/361
f 327/327/327 361/361/361 326/326/326
f 326/326/326 362/362/362 325/325/325
f 325/325/325 362/362/362 360/360/360
f 362/362/362 346/346/346 360/360/360
f 326/326/326 361/361/361 362/362/362
f 361/361/361 346/346/346 362/362/362
